<svg width="142" height="82" viewBox="0 0 142 82" fill="none" xmlns="http://www.w3.org/2000/svg">
<path d="M84.5951 42.225L87.0978 43.424C86.1748 46.5071 84.5761 48.7909 82.3303 50.304C80.0751 51.8075 77.1061 52.5593 73.4044 52.5593C68.9034 52.5593 65.2207 51.208 62.3564 48.5055C59.4921 45.7934 58.0742 42.282 58.0742 37.9523C58.0742 33.6225 59.5302 30.3491 62.442 27.6656C65.3539 24.9821 69.1127 23.6498 73.7089 23.6498C77.9149 23.6498 81.2075 24.8774 83.5864 27.342C85.9654 29.7971 87.1549 33.2038 87.1549 37.5717V38.4281H67.9993V38.9895C67.9993 42.1583 68.6655 44.5849 69.9977 46.2787C71.3204 47.9631 73.2236 48.81 75.6882 48.81C77.6961 48.81 79.4185 48.2676 80.8839 47.1923C82.3399 46.117 83.5769 44.4612 84.5951 42.244V42.225ZM67.9898 35.4496H76.7826C77.3725 35.4496 77.7817 35.3354 77.9911 35.0975C78.2099 34.8691 78.3146 34.3267 78.3146 33.4703C78.3146 31.0628 77.953 29.3309 77.2393 28.246C76.5256 27.1517 75.3837 26.6093 73.8136 26.6093C71.996 26.6093 70.5972 27.342 69.6551 28.798C68.694 30.2634 68.1421 32.4806 67.9898 35.4496ZM102.989 58.4877C102.989 59.268 103.132 59.8104 103.408 60.1244C103.684 60.448 104.188 60.6002 104.921 60.6002H108.128V63.5121H89.7718V60.7144L92.1508 60.6002C92.9501 60.5431 93.483 60.3718 93.7304 60.0768C93.9874 59.7723 94.1111 59.249 94.1111 58.4877V29.5688C94.1111 28.6743 93.9207 28.0843 93.5496 27.7988C93.1785 27.5133 92.3411 27.3611 91.0279 27.3611H89.2579V24.5443L102.666 23.9258V28.6076C103.779 27.009 105.121 25.829 106.672 25.0582C108.233 24.2969 110.05 23.9163 112.125 23.9163C115.598 23.9163 118.491 25.2295 120.822 27.8654C123.154 30.4918 124.324 33.8224 124.324 37.8762C124.324 41.93 123.068 45.6031 120.556 48.4103C118.034 51.2175 114.951 52.6068 111.268 52.6068C109.613 52.6068 108.138 52.3214 106.834 51.7409C105.521 51.1604 104.246 50.2374 103.008 48.9527V58.4782L102.989 58.4877ZM102.771 38.1997C102.771 41.5969 103.303 44.2043 104.379 46.0408C105.464 47.8774 106.996 48.8005 108.965 48.8005C110.773 48.8005 112.144 47.906 113.086 46.1265C114.028 44.347 114.504 41.7777 114.504 38.4186C114.504 35.0595 114.037 32.376 113.114 30.6441C112.182 28.9026 110.802 28.0367 108.965 28.0367C106.929 28.0367 105.378 28.9026 104.341 30.625C103.294 32.3569 102.771 34.8691 102.771 38.1997ZM154.366 42.225L156.869 43.424C155.946 46.5071 154.347 48.7909 152.101 50.304C149.846 51.8075 146.877 52.5593 143.175 52.5593C138.674 52.5593 134.992 51.208 132.127 48.5055C129.263 45.7934 127.845 42.282 127.845 37.9523C127.845 33.6225 129.301 30.3491 132.213 27.6656C135.125 24.9821 138.884 23.6498 143.48 23.6498C147.686 23.6498 150.978 24.8774 153.357 27.342C155.736 29.7971 156.916 33.2038 156.916 37.5717V38.4281H137.761V38.9895C137.761 42.1583 138.427 44.5849 139.759 46.2787C141.082 47.9631 142.985 48.81 145.45 48.81C147.457 48.81 149.18 48.2676 150.645 47.1923C152.101 46.117 153.338 44.4612 154.356 42.244L154.366 42.225ZM137.761 35.4496H146.553C147.143 35.4496 147.553 35.3354 147.762 35.0975C147.981 34.8691 148.085 34.3267 148.085 33.4703C148.085 31.0628 147.724 29.3309 147.01 28.246C146.296 27.1517 145.155 26.6093 143.584 26.6093C141.767 26.6093 140.368 27.342 139.426 28.798C138.465 30.2634 137.913 32.4806 137.761 35.4496ZM188.718 42.5009C187.843 45.7934 186.273 48.2866 184.018 49.99C181.753 51.7028 178.898 52.5593 175.444 52.5593C171.047 52.5593 167.441 51.227 164.615 48.5721C161.788 45.9076 160.39 42.5104 160.39 38.371C160.39 33.9175 161.874 30.3491 164.824 27.6656C167.783 24.9821 171.704 23.6498 176.576 23.6498C179.992 23.6498 182.771 24.3731 184.922 25.81C187.082 27.2469 188.157 29.0834 188.157 31.3007C188.157 32.9184 187.672 34.2125 186.711 35.1546C185.74 36.1157 184.436 36.5915 182.8 36.5915C181.458 36.5915 180.354 36.1728 179.479 35.3259C178.613 34.479 178.175 33.4417 178.175 32.2047C178.175 31.0532 178.489 30.1017 179.117 29.3309C179.754 28.5696 180.069 28.1699 180.069 28.1319C180.069 27.7036 179.764 27.3325 179.145 27.0185C178.527 26.7045 177.766 26.5427 176.852 26.5427C174.549 26.5427 172.855 27.4182 171.771 29.1786C170.676 30.9295 170.134 33.6416 170.134 37.3147C170.134 40.9879 170.771 43.9283 172.056 45.8505C173.341 47.7727 175.244 48.7339 177.766 48.7339C179.716 48.7339 181.363 48.1343 182.695 46.9449C184.037 45.7554 185.074 43.9759 185.816 41.6064L188.718 42.5009ZM211.3 37.8381C207.884 38.4186 205.476 39.2274 204.068 40.2647C202.65 41.3114 201.946 42.7864 201.946 44.6896C201.946 45.8505 202.269 46.7736 202.926 47.4682C203.573 48.1629 204.429 48.515 205.486 48.515C207.065 48.515 208.426 47.8964 209.568 46.6689C210.719 45.4413 211.3 43.9093 211.3 42.0822V37.8476V37.8381ZM220.14 45.0797V45.2701C220.14 46.0884 220.302 46.6879 220.625 47.059C220.949 47.4302 221.482 47.6205 222.205 47.6205C222.557 47.6205 222.928 47.5158 223.328 47.3255C223.728 47.1257 224.004 47.0305 224.156 47.0305C224.375 47.0305 224.556 47.1066 224.689 47.2494C224.812 47.4016 224.879 47.611 224.879 47.8965C224.879 49.0669 224.203 50.1232 222.852 51.0843C221.51 52.0359 219.874 52.5117 217.97 52.5117C216.534 52.5117 215.316 52.1501 214.316 51.4173C213.308 50.6846 212.727 49.733 212.556 48.5721C211.071 49.8472 209.32 50.8464 207.322 51.5601C205.314 52.2738 203.268 52.6259 201.146 52.6259C198.434 52.6259 196.331 52.0359 194.818 50.8464C193.305 49.6569 192.544 47.9821 192.544 45.841C192.544 42.9577 194.047 40.6548 197.035 38.9229C200.033 37.1815 204.81 35.8778 211.357 35.0214V31.9192C211.357 29.9113 210.957 28.4839 210.158 27.6561C209.359 26.8187 208.026 26.4 206.18 26.4C204.972 26.4 203.954 26.5998 203.135 26.9995C202.307 27.3991 201.889 27.8654 201.889 28.3793C201.889 28.5506 202.136 28.9312 202.631 29.5307C203.126 30.1207 203.373 30.8249 203.373 31.6527C203.373 32.728 202.954 33.594 202.107 34.2601C201.26 34.9167 200.157 35.2498 198.805 35.2498C197.368 35.2498 196.217 34.8406 195.332 34.0222C194.447 33.2038 194.009 32.1285 194.009 30.7868C194.009 28.541 195.17 26.7806 197.492 25.4959C199.814 24.2018 203.002 23.5547 207.075 23.5547C209.435 23.5547 211.5 23.7926 213.279 24.2684C215.068 24.7347 216.534 25.4388 217.675 26.3714C218.589 27.0756 219.227 27.8654 219.588 28.7504C219.95 29.6354 220.131 31.0152 220.131 32.9089V45.0988L220.14 45.0797ZM252.884 42.225L255.387 43.424C254.464 46.5071 252.865 48.7909 250.62 50.304C248.364 51.8075 245.395 52.5593 241.694 52.5593C237.193 52.5593 233.51 51.208 230.646 48.5055C227.781 45.7934 226.364 42.282 226.364 37.9523C226.364 33.6225 227.819 30.3491 230.731 27.6656C233.643 24.9821 237.402 23.6498 241.998 23.6498C246.204 23.6498 249.497 24.8774 251.876 27.342C254.255 29.7971 255.444 33.2038 255.444 37.5717V38.4281H236.289V38.9895C236.289 42.1583 236.955 44.5849 238.287 46.2787C239.61 47.9631 241.513 48.81 243.978 48.81C245.985 48.81 247.708 48.2676 249.173 47.1923C250.629 46.117 251.866 44.4612 252.884 42.244V42.225ZM236.279 35.4496H245.072C245.662 35.4496 246.071 35.3354 246.28 35.0975C246.499 34.8691 246.604 34.3267 246.604 33.4703C246.604 31.0628 246.242 29.3309 245.529 28.246C244.815 27.1517 243.673 26.6093 242.103 26.6093C240.285 26.6093 238.887 27.342 237.944 28.798C236.983 30.2634 236.431 32.4806 236.279 35.4496ZM271.393 36.1348C271.745 36.1348 272.116 36.1538 272.506 36.1918H273.21C275.418 36.1918 276.931 35.8398 277.721 35.1451C278.52 34.4504 278.92 33.2324 278.92 31.5005C278.92 30.1397 278.568 29.1215 277.864 28.4364C277.15 27.7417 276.103 27.3991 274.704 27.3991H274.343C272.982 27.3991 272.154 27.5419 271.84 27.8178C271.536 28.0938 271.383 28.6552 271.383 29.4926V36.1252L271.393 36.1348ZM271.393 39.1608V46.6308C271.393 47.4492 271.545 48.0011 271.85 48.2961C272.164 48.6006 273.039 48.7434 274.486 48.7434C276.493 48.7434 277.911 48.3627 278.72 47.6015C279.539 46.8402 279.948 45.5841 279.948 43.8331C279.948 42.0822 279.51 40.9498 278.625 40.1885C277.74 39.4273 276.313 39.0466 274.352 39.0466C273.753 39.0466 272.83 39.0847 271.564 39.1608H271.393ZM277.103 24.5063H278.749C281.423 24.5063 283.545 25.0868 285.143 26.2477C286.733 27.4086 287.532 28.9883 287.532 30.9676C287.532 32.8422 286.866 34.3172 285.543 35.3735C284.22 36.4393 282.222 37.1149 279.558 37.3909C282.489 37.6002 284.782 38.3234 286.457 39.57C288.122 40.8166 288.959 42.4343 288.959 44.4136C288.959 46.7545 287.932 48.534 285.867 49.7806C283.811 51.0272 280.833 51.6457 276.941 51.6457H258.337V48.7909L261.011 48.7339C261.772 48.6958 262.286 48.5245 262.562 48.22C262.829 47.9155 262.962 47.3826 262.962 46.6213V29.4926C262.962 28.7314 262.838 28.208 262.6 27.932C262.362 27.6465 261.839 27.4943 261.04 27.4562L258.337 27.342V24.4872H277.103V24.5063ZM292.318 38.1426C292.318 33.8795 293.774 30.3966 296.686 27.6941C299.598 24.9916 303.347 23.6498 307.953 23.6498C312.559 23.6498 316.289 25.0106 319.211 27.7227C322.151 30.4442 323.607 33.908 323.607 38.1426C323.607 42.3772 322.141 45.86 319.23 48.5435C316.299 51.227 312.549 52.5593 307.953 52.5593C303.357 52.5593 299.522 51.2175 296.639 48.553C293.755 45.8791 292.318 42.4153 292.318 38.1426ZM302.187 38.1426C302.187 41.968 302.643 44.7657 303.557 46.5357C304.47 48.3152 305.917 49.2001 307.906 49.2001C309.894 49.2001 311.407 48.3247 312.321 46.5642C313.244 44.8133 313.701 42.0061 313.701 38.1426C313.701 34.2791 313.244 31.4434 312.321 29.6734C311.398 27.894 309.942 27.009 307.963 27.009C305.983 27.009 304.48 27.894 303.566 29.6734C302.643 31.4434 302.187 34.2601 302.187 38.1426Z" fill="#020403"/>
<path d="M49.3592 43.5383C48.6074 44.7659 47.5416 45.7175 46.0857 46.4597C44.4489 47.2971 42.5457 47.9252 40.4237 48.3344C42.4316 45.7556 43.4498 42.406 43.4498 38.3427C43.4498 34.9359 42.6599 32.0336 41.1088 29.6831C41.5561 29.7973 42.0129 29.9306 42.4601 30.0733C44.1539 30.6062 45.6289 31.2913 46.8374 32.1097C47.9413 32.871 48.8358 33.8131 49.54 34.993C50.168 36.0303 50.4725 37.2769 50.4725 38.7994C50.4725 40.7312 50.0919 42.3203 49.3496 43.5383H49.3592ZM44.6964 6.97812C46.7423 8.24374 47.6558 9.92806 47.6558 12.4403C47.6558 13.5917 47.4465 14.5243 47.0278 15.3141C46.5805 16.1515 45.9334 16.8842 45.058 17.5313C44.1064 18.2545 42.9549 18.873 41.6132 19.4059C40.8995 19.6914 40.1477 19.9483 39.3769 20.1958C40.3761 18.2164 40.8805 15.9326 40.8805 13.3538C40.8805 10.0232 40.0145 7.22554 38.2921 5.02736C41.6322 5.49364 43.5735 6.27394 44.6868 6.96861L44.6964 6.97812ZM52.7564 33.0613C51.7762 31.4341 50.5106 30.0828 48.9405 29.0075C47.4274 27.9798 45.6384 27.1424 43.5925 26.4953C41.5371 25.8482 39.5577 25.4295 37.6546 25.2297V24.535C39.5577 24.0973 41.3467 23.5454 43.0025 22.8888C44.6678 22.2322 46.0952 21.4423 47.2942 20.5383C48.6169 19.5582 49.6256 18.4068 50.3393 17.0745C51.0435 15.7423 51.4051 14.2007 51.4051 12.4403C51.4051 8.62438 49.8254 5.74105 46.6757 3.79028C43.5259 1.83952 38.3968 0.859375 31.2789 0.859375H3.00704V3.71416C3.76831 3.83786 4.64378 3.99963 5.64295 4.20898C6.64212 4.41834 7.52711 4.67527 8.27886 4.99881C9.30659 5.43654 9.95367 5.9504 10.2201 6.54039C10.4866 7.13038 10.6198 7.8631 10.6198 8.73857V19.0729C11.971 18.854 13.2938 18.7398 14.5689 18.7398C17.8519 18.7398 20.8875 19.4725 23.6281 20.919V4.34221C24.1705 4.31366 24.808 4.28511 25.5503 4.24705C26.2925 4.20898 26.9016 4.18995 27.3678 4.18995C30.6223 4.18995 33.0584 4.99881 34.6761 6.607C36.3033 8.21519 37.1122 10.4705 37.1122 13.3538C37.1122 16.5036 36.1701 19.0063 34.2859 20.8524C32.8014 22.3083 30.6603 23.1933 27.8722 23.4978C25.1126 24.6016 16.8622 27.3708 5.82375 26.1337C13.1986 26.2193 19.3269 24.1163 22.3815 22.8317C20.0025 21.6136 17.3856 20.9951 14.5499 20.9951C12.6276 20.9951 10.6103 21.2711 8.49773 21.8325C4.777 22.8126 1.68432 24.4399 0 25.439C1.69384 26.4477 4.82458 28.094 8.55483 29.0646C10.6483 29.607 12.6467 29.883 14.5499 29.883C17.9756 29.883 21.0683 28.998 23.8184 27.228C24.18 27.2185 24.6748 27.19 25.3124 27.1614C26.0832 27.1234 26.7017 27.1043 27.168 27.1043C31.2028 27.1043 34.2954 28.075 36.446 30.0067C38.5966 31.9384 39.6719 34.7171 39.6719 38.3427C39.6719 41.9682 38.7584 44.6422 36.9409 46.6025C35.1233 48.5628 32.7539 49.5429 29.842 49.5429C28.2052 49.5429 26.8159 49.2289 25.6645 48.6103C24.5131 47.9823 23.8279 47.221 23.609 46.317V29.9496C20.8589 31.396 17.8233 32.1287 14.5499 32.1287C13.2747 32.1287 11.952 32.0146 10.6008 31.7957V45.4035C10.6008 46.3551 10.439 47.1354 10.1059 47.7349C9.77287 48.3344 9.15433 48.8197 8.25032 49.1813C7.78404 49.3811 6.97518 49.5524 5.83327 49.6952C4.68184 49.8379 3.73025 49.9521 2.96897 50.0282V52.8925H30.0228C33.9053 52.8925 37.2834 52.6641 40.1572 52.1979C43.0311 51.7316 45.5623 50.9418 47.7605 49.8189C49.835 48.7721 51.4336 47.3352 52.547 45.5081C53.6604 43.6906 54.2123 41.4544 54.2123 38.8184C54.2123 36.6203 53.727 34.7076 52.7468 33.0803L52.7564 33.0613Z" fill="#020403"/>
</svg>
