<svg width="1706" height="87" viewBox="0 0 1706 87" fill="none" xmlns="http://www.w3.org/2000/svg">
<mask id="path-1-outside-1_3969_19365" maskUnits="userSpaceOnUse" x="0" y="0" width="1706" height="87" fill="black">
<rect fill="white" width="1706" height="87"/>
<path d="M60.86 3.49999C67.07 3.49999 72.3983 4.15166 76.845 5.455C81.2917 6.68166 84.9333 8.63666 87.77 11.32C90.6067 13.9267 92.6767 17.3 93.98 21.44C95.36 25.5033 96.05 30.3333 96.05 35.93V51.57C96.05 57.1667 95.36 62.035 93.98 66.175C92.6767 70.2383 90.6067 73.6117 87.77 76.295C84.9333 78.9017 81.2917 80.8567 76.845 82.16C72.3983 83.3867 67.07 84 60.86 84H7.04C4.74 84 3.59 82.85 3.59 80.55V6.95C3.59 4.65 4.74 3.49999 7.04 3.49999H60.86ZM21.185 66.52C21.185 67.5167 21.6833 68.015 22.68 68.015H60.4C63.7733 68.015 66.61 67.7083 68.91 67.095C71.21 66.4817 73.05 65.485 74.43 64.105C75.8867 62.725 76.9217 60.885 77.535 58.585C78.1483 56.285 78.455 53.4483 78.455 50.075V37.425C78.455 34.0517 78.1483 31.215 77.535 28.915C76.9217 26.615 75.8867 24.775 74.43 23.395C73.05 22.015 71.21 21.0183 68.91 20.405C66.61 19.7917 63.7733 19.485 60.4 19.485H22.68C21.6833 19.485 21.185 20.0217 21.185 21.095V66.52ZM135.807 3.49999C137.493 3.49999 138.337 4.34333 138.337 6.03V81.47C138.337 83.1567 137.493 84 135.807 84H123.387C121.623 84 120.742 83.1567 120.742 81.47V6.03C120.742 4.34333 121.623 3.49999 123.387 3.49999H135.807ZM253.582 3.49999C255.269 3.49999 256.112 4.34333 256.112 6.03V17.3C256.112 19.0633 255.269 19.945 253.582 19.945H195.967C192.977 19.945 190.485 20.2133 188.492 20.75C186.575 21.21 185.042 22.0533 183.892 23.28C182.742 24.43 181.899 26.0017 181.362 27.995C180.902 29.9883 180.672 32.5183 180.672 35.585V52.145C180.672 55.2117 180.902 57.78 181.362 59.85C181.899 61.8433 182.742 63.4533 183.892 64.68C185.042 65.83 186.575 66.6733 188.492 67.21C190.485 67.67 192.977 67.9 195.967 67.9H233.917C235.91 67.9 237.367 67.4017 238.287 66.405C239.207 65.3317 239.667 63.4917 239.667 60.885V51.57C239.667 50.5733 239.207 50.075 238.287 50.075H204.592C202.905 50.075 202.062 49.1933 202.062 47.43V38.805C202.062 37.0417 202.905 36.16 204.592 36.16H252.547C254.847 36.16 255.997 37.31 255.997 39.61V66.405C255.997 72.845 254.77 77.4067 252.317 80.09C249.864 82.6967 246.337 84 241.737 84H195.277C189.45 84 184.505 83.4633 180.442 82.39C176.379 81.3167 173.044 79.5917 170.437 77.215C167.907 74.7617 166.029 71.6183 164.802 67.785C163.652 63.875 163.077 59.16 163.077 53.64V33.86C163.077 28.34 163.652 23.6633 164.802 19.83C166.029 15.9967 167.907 12.8917 170.437 10.515C173.044 8.06166 176.379 6.29833 180.442 5.22499C184.505 4.07499 189.45 3.49999 195.277 3.49999H253.582ZM295.877 3.49999C297.564 3.49999 298.407 4.34333 298.407 6.03V81.47C298.407 83.1567 297.564 84 295.877 84H283.457C281.694 84 280.812 83.1567 280.812 81.47V6.03C280.812 4.34333 281.694 3.49999 283.457 3.49999H295.877ZM411.582 3.49999C413.345 3.49999 414.227 4.34333 414.227 6.03V17.3C414.227 19.0633 413.345 19.945 411.582 19.945H375.472V81.47C375.472 83.1567 374.629 84 372.942 84H360.407C358.72 84 357.877 83.1567 357.877 81.47V19.945H321.767C320.004 19.945 319.122 19.0633 319.122 17.3V6.03C319.122 4.34333 320.004 3.49999 321.767 3.49999H411.582ZM470.941 3.49999C473.854 3.49999 476.308 4.11333 478.301 5.34C480.294 6.49 482.249 8.79 484.166 12.24L522.231 81.355C522.614 82.1217 522.691 82.7733 522.461 83.31C522.308 83.77 521.771 84 520.851 84H506.246C504.943 84 504.061 83.5017 503.601 82.505L495.436 67.67H441.386L433.451 82.505C432.914 83.5017 432.033 84 430.806 84H415.856C414.859 84 414.246 83.77 414.016 83.31C413.863 82.7733 413.978 82.1217 414.361 81.355L452.081 12.24C453.998 8.79 455.876 6.49 457.716 5.34C459.556 4.11333 461.703 3.49999 464.156 3.49999H470.941ZM448.631 54.33H488.191L469.906 20.635C469.599 20.0983 469.178 19.83 468.641 19.83H467.951C467.414 19.83 466.993 20.0983 466.686 20.635L448.631 54.33ZM552.542 3.49999C554.228 3.49999 555.072 4.34333 555.072 6.03V51.915C555.072 54.9817 555.302 57.55 555.762 59.62C556.298 61.6133 557.142 63.2233 558.292 64.45C559.442 65.6 560.975 66.4433 562.892 66.98C564.885 67.44 567.377 67.67 570.367 67.67H616.942C618.628 67.67 619.472 68.5133 619.472 70.2V81.47C619.472 83.1567 618.628 84 616.942 84H569.677C563.85 84 558.905 83.4633 554.842 82.39C550.778 81.3167 547.443 79.5917 544.837 77.215C542.307 74.7617 540.428 71.6183 539.202 67.785C538.052 63.875 537.477 59.16 537.477 53.64V6.03C537.477 4.34333 538.358 3.49999 540.122 3.49999H552.542ZM664.921 38.23C666.301 38.23 666.991 38.92 666.991 40.3V48.58C666.991 49.96 666.301 50.65 664.921 50.65H630.306C628.926 50.65 628.236 49.96 628.236 48.58V40.3C628.236 38.92 628.926 38.23 630.306 38.23H664.921ZM710.327 3.49999C712.014 3.49999 713.47 3.615 714.697 3.845C715.924 4.075 716.997 4.535 717.917 5.22499C718.837 5.83833 719.642 6.71999 720.332 7.86999C721.099 8.94333 721.865 10.4 722.632 12.24L746.552 67.44C746.859 68.13 747.395 68.475 748.162 68.475H749.542C750.309 68.475 750.845 68.13 751.152 67.44L775.072 12.24C775.839 10.4 776.567 8.94333 777.257 7.86999C778.024 6.71999 778.867 5.83833 779.787 5.22499C780.707 4.535 781.742 4.075 782.892 3.845C784.119 3.615 785.575 3.49999 787.262 3.49999H799.567C803.554 3.49999 806.237 4.41999 807.617 6.25999C808.997 8.02333 809.687 11.09 809.687 15.46V81.47C809.687 83.1567 808.805 84 807.042 84H795.312C793.625 84 792.782 83.1567 792.782 81.47V21.44C792.782 20.6733 792.475 20.29 791.862 20.29H790.827C790.06 20.29 789.562 20.5967 789.332 21.21L766.102 72.73C765.182 74.8 764.224 76.5633 763.227 78.02C762.307 79.4 761.272 80.55 760.122 81.47C759.049 82.39 757.784 83.0417 756.327 83.425C754.947 83.8083 753.299 84 751.382 84H745.862C743.945 84 742.259 83.8083 740.802 83.425C739.422 83.0417 738.157 82.39 737.007 81.47C735.934 80.55 734.899 79.4 733.902 78.02C732.982 76.5633 732.062 74.8 731.142 72.73L707.912 21.21C707.682 20.5967 707.184 20.29 706.417 20.29H705.382C704.769 20.29 704.462 20.6733 704.462 21.44V81.47C704.462 83.1567 703.619 84 701.932 84H690.202C688.439 84 687.557 83.1567 687.557 81.47V15.46C687.557 11.09 688.247 8.02333 689.627 6.25999C691.007 4.41999 693.729 3.49999 697.792 3.49999H710.327ZM886.316 3.49999C889.229 3.49999 891.682 4.11333 893.676 5.34C895.669 6.49 897.624 8.79 899.541 12.24L937.606 81.355C937.989 82.1217 938.066 82.7733 937.836 83.31C937.682 83.77 937.146 84 936.226 84H921.621C920.317 84 919.436 83.5017 918.976 82.505L910.811 67.67H856.761L848.826 82.505C848.289 83.5017 847.407 84 846.181 84H831.231C830.234 84 829.621 83.77 829.391 83.31C829.237 82.7733 829.352 82.1217 829.736 81.355L867.456 12.24C869.372 8.79 871.251 6.49 873.091 5.34C874.931 4.11333 877.077 3.49999 879.531 3.49999H886.316ZM864.006 54.33H903.566L885.281 20.635C884.974 20.0983 884.552 19.83 884.016 19.83H883.326C882.789 19.83 882.367 20.0983 882.061 20.635L864.006 54.33ZM1022.89 3.49999C1031.71 3.49999 1038.03 5.49333 1041.87 9.48C1045.7 13.4667 1047.62 19.37 1047.62 27.19V35.7C1047.62 43.52 1045.7 49.4233 1041.87 53.41C1038.03 57.3967 1031.71 59.39 1022.89 59.39H975.281V81.47C975.281 83.1567 974.437 84 972.751 84H960.331C958.567 84 957.686 83.1567 957.686 81.47V6.95C957.686 4.65 958.836 3.49999 961.136 3.49999H1022.89ZM975.281 44.21H1019.33C1023.24 44.21 1026 43.3667 1027.61 41.68C1029.22 39.9933 1030.02 37.425 1030.02 33.975V29.605C1030.02 26.155 1029.22 23.5867 1027.61 21.9C1026 20.2133 1023.24 19.37 1019.33 19.37H976.776C975.779 19.37 975.281 19.83 975.281 20.75V44.21ZM1084.4 3.49999C1086.09 3.49999 1086.93 4.34333 1086.93 6.03V36.62H1096.59C1098.43 36.62 1099.96 36.5817 1101.19 36.505C1102.42 36.3517 1103.49 36.0833 1104.41 35.7C1105.33 35.3167 1106.17 34.78 1106.94 34.09C1107.71 33.4 1108.51 32.5183 1109.35 31.445L1129.13 4.995C1129.52 4.45833 1129.9 4.075 1130.28 3.845C1130.67 3.615 1131.4 3.49999 1132.47 3.49999H1146.73C1147.73 3.49999 1148.3 3.84499 1148.45 4.53499C1148.68 5.14833 1148.61 5.72333 1148.22 6.25999L1125.91 35.125C1124.61 36.8883 1123.38 38.3833 1122.23 39.61C1121.16 40.8367 1120.09 41.91 1119.01 42.83C1122 44.67 1124.92 47.43 1127.75 51.11L1151.33 81.01C1151.64 81.3933 1151.75 82.0067 1151.67 82.85C1151.6 83.6167 1150.98 84 1149.83 84H1135.11C1134.12 84 1133.43 83.885 1133.04 83.655C1132.66 83.425 1132.28 83.0417 1131.89 82.505L1110.73 55.135C1109.2 53.1417 1107.55 51.8 1105.79 51.11C1104.03 50.3433 1101.38 49.96 1097.85 49.96H1086.93V81.47C1086.93 83.1567 1086.09 84 1084.4 84H1071.98C1070.22 84 1069.33 83.1567 1069.33 81.47V6.03C1069.33 4.34333 1070.22 3.49999 1071.98 3.49999H1084.4ZM1254.13 3.49999C1255.81 3.49999 1256.66 4.34333 1256.66 6.03V16.955C1256.66 18.6417 1255.81 19.485 1254.13 19.485H1190.07C1189.07 19.485 1188.58 20.0217 1188.58 21.095V36.275H1253.44C1255.2 36.275 1256.08 37.1183 1256.08 38.805V47.89C1256.08 49.5767 1255.2 50.42 1253.44 50.42H1188.58V66.29C1188.58 67.44 1189.07 68.015 1190.07 68.015H1254.13C1255.81 68.015 1256.66 68.8583 1256.66 70.545V81.47C1256.66 83.1567 1255.81 84 1254.13 84H1177.77C1175.54 84 1173.89 83.5783 1172.82 82.735C1171.82 81.8917 1171.33 80.3967 1171.33 78.25V9.25C1171.33 7.56333 1171.82 6.18333 1172.82 5.10999C1173.89 4.03666 1175.54 3.49999 1177.77 3.49999H1254.13ZM1367.91 3.49999C1369.67 3.49999 1370.55 4.34333 1370.55 6.03V17.3C1370.55 19.0633 1369.67 19.945 1367.91 19.945H1331.8V81.47C1331.8 83.1567 1330.95 84 1329.27 84H1316.73C1315.04 84 1314.2 83.1567 1314.2 81.47V19.945H1278.09C1276.33 19.945 1275.45 19.0633 1275.45 17.3V6.03C1275.45 4.34333 1276.33 3.49999 1278.09 3.49999H1367.91ZM1406.21 3.49999C1407.89 3.49999 1408.74 4.34333 1408.74 6.03V66.06C1408.74 66.8267 1409.04 67.21 1409.66 67.21H1410.69C1411.46 67.21 1411.99 66.9417 1412.3 66.405L1446.34 10.17C1447.11 8.79 1447.84 7.67833 1448.53 6.835C1449.29 5.99166 1450.14 5.34 1451.06 4.88C1452.05 4.34333 1453.2 3.99833 1454.51 3.845C1455.89 3.615 1457.61 3.49999 1459.68 3.49999H1469.8C1473.33 3.49999 1475.93 4.34333 1477.62 6.03C1479.31 7.64 1480.15 10.7833 1480.15 15.46V81.47C1480.15 83.1567 1479.27 84 1477.51 84H1465.09C1463.4 84 1462.56 83.1567 1462.56 81.47V21.44C1462.56 20.6733 1462.25 20.29 1461.64 20.29H1460.6C1459.83 20.29 1459.34 20.5583 1459.11 21.095L1424.72 77.215C1423.88 78.595 1423.07 79.7067 1422.31 80.55C1421.62 81.3933 1420.81 82.0833 1419.89 82.62C1418.97 83.1567 1417.86 83.54 1416.56 83.77C1415.25 83.9233 1413.57 84 1411.5 84H1401.61C1398.08 84 1395.43 83.195 1393.67 81.585C1391.98 79.8983 1391.14 76.7167 1391.14 72.04V6.03C1391.14 4.34333 1392.02 3.49999 1393.79 3.49999H1406.21ZM1520.78 3.49999C1522.46 3.49999 1523.31 4.34333 1523.31 6.03V35.93H1577.13V6.03C1577.13 4.34333 1577.97 3.49999 1579.66 3.49999H1592.08C1593.84 3.49999 1594.72 4.34333 1594.72 6.03V81.47C1594.72 83.1567 1593.84 84 1592.08 84H1579.66C1577.97 84 1577.13 83.1567 1577.13 81.47V50.88H1523.31V81.47C1523.31 83.1567 1522.46 84 1520.78 84H1508.36C1506.59 84 1505.71 83.1567 1505.71 81.47V6.03C1505.71 4.34333 1506.59 3.49999 1508.36 3.49999H1520.78ZM1699.51 3.49999C1701.2 3.49999 1702.04 4.34333 1702.04 6.03V17.3C1702.04 19.0633 1701.2 19.945 1699.51 19.945H1652.94C1649.95 19.945 1647.46 20.2133 1645.46 20.75C1643.55 21.21 1642.01 22.0533 1640.86 23.28C1639.71 24.43 1638.87 26.0017 1638.33 27.995C1637.87 29.9883 1637.64 32.5183 1637.64 35.585V81.47C1637.64 83.1567 1636.8 84 1635.11 84H1622.69C1620.93 84 1620.05 83.1567 1620.05 81.47V33.86C1620.05 28.34 1620.62 23.6633 1621.77 19.83C1623 15.9967 1624.88 12.8917 1627.41 10.515C1630.02 8.06166 1633.35 6.29833 1637.41 5.22499C1641.48 4.07499 1646.42 3.49999 1652.25 3.49999H1699.51Z"/>
</mask>
<path d="M76.845 5.455L76.0012 8.33388L76.0241 8.34061L76.0472 8.34698L76.845 5.455ZM87.77 11.32L85.7084 13.4994L85.7242 13.5143L85.7401 13.529L87.77 11.32ZM93.98 21.44L91.1185 22.3409L91.1286 22.3729L91.1394 22.4047L93.98 21.44ZM93.98 66.175L91.134 65.2263L91.1286 65.2425L91.1234 65.2587L93.98 66.175ZM87.77 76.295L89.7999 78.504L89.8158 78.4893L89.8316 78.4744L87.77 76.295ZM76.845 82.16L77.6428 85.052L77.6659 85.0456L77.6888 85.0389L76.845 82.16ZM68.91 67.095L68.137 64.1963L68.91 67.095ZM74.43 64.105L72.3668 61.9271L72.3373 61.955L72.3087 61.9837L74.43 64.105ZM77.535 58.585L80.4337 59.358V59.358L77.535 58.585ZM77.535 28.915L80.4337 28.142V28.142L77.535 28.915ZM74.43 23.395L72.3087 25.5163L72.3373 25.545L72.3668 25.5729L74.43 23.395ZM68.91 20.405L68.137 23.3037L68.91 20.405ZM60.86 6.49999C66.8748 6.49999 71.9036 7.13287 76.0012 8.33388L77.6888 2.57611C72.8931 1.17046 67.2652 0.499994 60.86 0.499994V6.49999ZM76.0472 8.34698C80.1064 9.46674 83.2878 11.2096 85.7084 13.4994L89.8316 9.14059C86.5789 6.06367 82.477 3.89658 77.6428 2.56302L76.0472 8.34698ZM85.7401 13.529C88.1427 15.7367 89.9526 18.6375 91.1185 22.3409L96.8416 20.5391C95.4008 15.9625 93.0707 12.1166 89.7999 9.11102L85.7401 13.529ZM91.1394 22.4047C92.3873 26.0792 93.05 30.5672 93.05 35.93H99.05C99.05 30.0994 98.3327 24.9275 96.8206 20.4753L91.1394 22.4047ZM93.05 35.93V51.57H99.05V35.93H93.05ZM93.05 51.57C93.05 56.9306 92.3879 61.4646 91.134 65.2263L96.8261 67.1237C98.3322 62.6054 99.05 57.4027 99.05 51.57H93.05ZM91.1234 65.2587C89.9597 68.8866 88.1445 71.8112 85.7084 74.1156L89.8316 78.4744C93.0689 75.4121 95.3936 71.5901 96.8367 67.0913L91.1234 65.2587ZM85.7401 74.086C83.3041 76.3245 80.0948 78.0813 76.0012 79.2811L77.6888 85.0389C82.4885 83.6321 86.5626 81.4788 89.7999 78.504L85.7401 74.086ZM76.0472 79.268C71.9324 80.4031 66.887 81 60.86 81V87C67.253 87 72.8643 86.3702 77.6428 85.052L76.0472 79.268ZM60.86 81H7.04V87H60.86V81ZM7.04 81C6.70605 81 6.53597 80.9572 6.47931 80.9383C6.43717 80.9243 6.49483 80.9372 6.57382 81.0162C6.65281 81.0952 6.66572 81.1528 6.65168 81.1107C6.63279 81.054 6.59 80.8839 6.59 80.55H0.59C0.59 82.1624 0.995141 83.9228 2.33118 85.2588C3.66722 86.5949 5.42757 87 7.04 87V81ZM6.59 80.55V6.95H0.59V80.55H6.59ZM6.59 6.95C6.59 6.61604 6.63279 6.44597 6.65168 6.3893C6.66572 6.34717 6.65281 6.40483 6.57382 6.48381C6.49483 6.5628 6.43718 6.57571 6.47931 6.56167C6.53597 6.54278 6.70605 6.49999 7.04 6.49999V0.499994C5.42756 0.499994 3.66722 0.905136 2.33118 2.24118C0.99514 3.57722 0.59 5.33756 0.59 6.95H6.59ZM7.04 6.49999H60.86V0.499994H7.04V6.49999ZM18.185 66.52C18.185 67.4808 18.4272 68.7524 19.4374 69.7626C20.4476 70.7728 21.7192 71.015 22.68 71.015V65.015C22.6801 65.015 22.6864 65.015 22.6985 65.0158C22.7106 65.0166 22.7293 65.0183 22.7539 65.0218C22.8025 65.0287 22.8787 65.0435 22.9746 65.0755C23.1769 65.1429 23.4382 65.278 23.6801 65.5199C23.922 65.7618 24.0571 66.0231 24.1245 66.2254C24.1565 66.3213 24.1713 66.3975 24.1782 66.4461C24.1817 66.4707 24.1834 66.4894 24.1842 66.5015C24.185 66.5136 24.185 66.5199 24.185 66.52H18.185ZM22.68 71.015H60.4V65.015H22.68V71.015ZM60.4 71.015C63.9352 71.015 67.0503 70.6958 69.683 69.9937L68.137 64.1963C66.1697 64.7209 63.6114 65.015 60.4 65.015V71.015ZM69.683 69.9937C72.3814 69.2741 74.7241 68.0535 76.5513 66.2263L72.3087 61.9837C71.3759 62.9165 70.0386 63.6892 68.137 64.1963L69.683 69.9937ZM76.4932 66.2829C78.4227 64.4549 79.7042 62.0936 80.4337 59.358L74.6363 57.812C74.1391 59.6764 73.3506 60.9951 72.3668 61.9271L76.4932 66.2829ZM80.4337 59.358C81.1358 56.7253 81.455 53.6102 81.455 50.075H75.455C75.455 53.2864 75.1609 55.8447 74.6363 57.812L80.4337 59.358ZM81.455 50.075V37.425H75.455V50.075H81.455ZM81.455 37.425C81.455 33.8898 81.1358 30.7747 80.4337 28.142L74.6363 29.688C75.1609 31.6553 75.455 34.2136 75.455 37.425H81.455ZM80.4337 28.142C79.7042 25.4064 78.4227 23.0451 76.4932 21.2171L72.3668 25.5729C73.3506 26.5049 74.1391 27.8236 74.6363 29.688L80.4337 28.142ZM76.5513 21.2737C74.7241 19.4465 72.3814 18.2259 69.683 17.5063L68.137 23.3037C70.0386 23.8108 71.3759 24.5835 72.3087 25.5163L76.5513 21.2737ZM69.683 17.5063C67.0503 16.8042 63.9352 16.485 60.4 16.485V22.485C63.6114 22.485 66.1697 22.7791 68.137 23.3037L69.683 17.5063ZM60.4 16.485H22.68V22.485H60.4V16.485ZM22.68 16.485C21.6599 16.485 20.3596 16.7701 19.3604 17.8461C18.4001 18.8803 18.185 20.1488 18.185 21.095H24.185C24.185 20.9678 24.2191 21.4314 23.7571 21.9288C23.2562 22.4683 22.7035 22.485 22.68 22.485V16.485ZM18.185 21.095V66.52H24.185V21.095H18.185ZM135.807 6.49999C135.987 6.49999 136.023 6.52361 135.965 6.50417C135.892 6.47988 135.739 6.40947 135.583 6.25381C135.427 6.09816 135.357 5.94467 135.333 5.8718C135.313 5.81347 135.337 5.84938 135.337 6.03H141.337C141.337 4.72423 141.008 3.19388 139.826 2.01118C138.643 0.828468 137.113 0.499994 135.807 0.499994V6.49999ZM135.337 6.03V81.47H141.337V6.03H135.337ZM135.337 81.47C135.337 81.6506 135.313 81.6865 135.333 81.6282C135.357 81.5553 135.427 81.4018 135.583 81.2462C135.739 81.0905 135.892 81.0201 135.965 80.9958C136.023 80.9764 135.987 81 135.807 81V87C137.113 87 138.643 86.6715 139.826 85.4888C141.008 84.3061 141.337 82.7758 141.337 81.47H135.337ZM135.807 81H123.387V87H135.807V81ZM123.387 81C123.176 81 123.11 80.9737 123.141 80.9836C123.185 80.9977 123.324 81.054 123.477 81.1996C123.632 81.3479 123.71 81.5025 123.74 81.5896C123.765 81.6609 123.742 81.6388 123.742 81.47H117.742C117.742 82.8106 118.099 84.3586 119.329 85.5354C120.535 86.6885 122.075 87 123.387 87V81ZM123.742 81.47V6.03H117.742V81.47H123.742ZM123.742 6.03C123.742 5.8612 123.765 5.83912 123.74 5.91035C123.71 5.99749 123.632 6.15206 123.477 6.30042C123.324 6.44604 123.185 6.50228 123.141 6.51635C123.11 6.5263 123.176 6.49999 123.387 6.49999V0.499994C122.075 0.499994 120.535 0.811516 119.329 1.96457C118.099 3.14145 117.742 4.68941 117.742 6.03H123.742ZM123.387 6.49999H135.807V0.499994H123.387V6.49999ZM188.492 20.75L189.192 23.6672L189.232 23.6576L189.272 23.6468L188.492 20.75ZM183.892 23.28L186.013 25.4013L186.048 25.3671L186.081 25.3318L183.892 23.28ZM181.362 27.995L178.465 27.2151L178.451 27.2675L178.439 27.3204L181.362 27.995ZM181.362 59.85L178.433 60.5008L178.448 60.5657L178.465 60.6299L181.362 59.85ZM183.892 64.68L181.703 66.7318L181.736 66.7671L181.771 66.8013L183.892 64.68ZM188.492 67.21L187.683 70.0989L187.75 70.1176L187.817 70.1332L188.492 67.21ZM238.287 66.405L240.491 68.4398L240.529 68.3993L240.565 68.3574L238.287 66.405ZM252.317 80.09L254.502 82.1461L254.516 82.1303L254.531 82.1143L252.317 80.09ZM180.442 82.39L179.676 85.2905L180.442 82.39ZM170.437 77.215L168.349 79.3687L168.382 79.4008L168.416 79.4319L170.437 77.215ZM164.802 67.785L161.924 68.6315L161.934 68.6655L161.945 68.6993L164.802 67.785ZM164.802 19.83L161.945 18.9157L161.936 18.9417L161.929 18.968L164.802 19.83ZM170.437 10.515L172.491 12.7015L172.493 12.6996L170.437 10.515ZM180.442 5.22499L181.208 8.12551L181.234 8.11878L181.259 8.11161L180.442 5.22499ZM253.582 6.49999C253.763 6.49999 253.799 6.52361 253.74 6.50417C253.667 6.47988 253.514 6.40947 253.358 6.25381C253.203 6.09816 253.132 5.94467 253.108 5.8718C253.088 5.81347 253.112 5.84938 253.112 6.03H259.112C259.112 4.72423 258.784 3.19388 257.601 2.01118C256.418 0.828468 254.888 0.499994 253.582 0.499994V6.49999ZM253.112 6.03V17.3H259.112V6.03H253.112ZM253.112 17.3C253.112 17.511 253.086 17.5771 253.096 17.5459C253.11 17.5017 253.166 17.3623 253.312 17.2101C253.46 17.055 253.615 16.9771 253.702 16.9468C253.773 16.922 253.751 16.945 253.582 16.945V22.945C254.923 22.945 256.471 22.5878 257.647 21.3574C258.801 20.1519 259.112 18.6116 259.112 17.3H253.112ZM253.582 16.945H195.967V22.945H253.582V16.945ZM195.967 16.945C192.82 16.945 190.045 17.2249 187.712 17.8532L189.272 23.6468C190.925 23.2017 193.134 22.945 195.967 22.945V16.945ZM187.792 17.8328C185.405 18.4056 183.32 19.5043 181.703 21.2282L186.081 25.3318C186.765 24.6023 187.745 24.0144 189.192 23.6672L187.792 17.8328ZM181.771 21.1587C180.162 22.7675 179.102 24.8487 178.465 27.2151L184.259 28.7749C184.695 27.1546 185.322 26.0925 186.013 25.4013L181.771 21.1587ZM178.439 27.3204C177.909 29.6153 177.672 32.392 177.672 35.585H183.672C183.672 32.6447 183.895 30.3614 184.285 28.6696L178.439 27.3204ZM177.672 35.585V52.145H183.672V35.585H177.672ZM177.672 52.145C177.672 55.3427 177.91 58.1456 178.433 60.5008L184.291 59.1992C183.894 57.4144 183.672 55.0807 183.672 52.145H177.672ZM178.465 60.6299C179.101 62.992 180.148 65.0728 181.703 66.7318L186.081 62.6282C185.336 61.8338 184.696 60.6947 184.259 59.0701L178.465 60.6299ZM181.771 66.8013C183.358 68.3888 185.381 69.4542 187.683 70.0989L189.301 64.3211C187.77 63.8925 186.726 63.2712 186.013 62.5587L181.771 66.8013ZM187.817 70.1332C190.108 70.6617 192.844 70.9 195.967 70.9V64.9C193.11 64.9 190.863 64.6783 189.167 64.2868L187.817 70.1332ZM195.967 70.9H233.917V64.9H195.967V70.9ZM233.917 70.9C236.351 70.9 238.781 70.2927 240.491 68.4398L236.083 64.3702C235.953 64.5106 235.47 64.9 233.917 64.9V70.9ZM240.565 68.3574C242.209 66.4392 242.667 63.6736 242.667 60.885H236.667C236.667 63.3097 236.205 64.2241 236.009 64.4526L240.565 68.3574ZM242.667 60.885V51.57H236.667V60.885H242.667ZM242.667 51.57C242.667 50.6662 242.463 49.429 241.526 48.4139C240.548 47.3534 239.274 47.075 238.287 47.075V53.075C238.22 53.075 237.637 53.0457 237.118 52.4836C236.641 51.9668 236.667 51.4772 236.667 51.57H242.667ZM238.287 47.075H204.592V53.075H238.287V47.075ZM204.592 47.075C204.423 47.075 204.401 47.052 204.472 47.0768C204.56 47.1071 204.714 47.185 204.862 47.3401C205.008 47.4923 205.064 47.6317 205.078 47.6759C205.088 47.7071 205.062 47.641 205.062 47.43H199.062C199.062 48.7416 199.374 50.282 200.527 51.4874C201.703 52.7178 203.251 53.075 204.592 53.075V47.075ZM205.062 47.43V38.805H199.062V47.43H205.062ZM205.062 38.805C205.062 38.594 205.088 38.5279 205.078 38.5591C205.064 38.6033 205.008 38.7427 204.862 38.8949C204.714 39.05 204.56 39.1279 204.472 39.1582C204.401 39.183 204.423 39.16 204.592 39.16V33.16C203.251 33.16 201.703 33.5172 200.527 34.7476C199.374 35.953 199.062 37.4934 199.062 38.805H205.062ZM204.592 39.16H252.547V33.16H204.592V39.16ZM252.547 39.16C252.881 39.16 253.051 39.2028 253.108 39.2217C253.15 39.2357 253.092 39.2228 253.013 39.1438C252.934 39.0648 252.921 39.0072 252.935 39.0493C252.954 39.106 252.997 39.276 252.997 39.61H258.997C258.997 37.9976 258.592 36.2372 257.256 34.9012C255.92 33.5651 254.159 33.16 252.547 33.16V39.16ZM252.997 39.61V66.405H258.997V39.61H252.997ZM252.997 66.405C252.997 72.6207 251.783 76.2283 250.103 78.0657L254.531 82.1143C257.758 78.585 258.997 73.0693 258.997 66.405H252.997ZM250.132 78.0339C248.397 79.8781 245.759 81 241.737 81V87C246.915 87 251.331 85.5153 254.502 82.1461L250.132 78.0339ZM241.737 81H195.277V87H241.737V81ZM195.277 81C189.617 81 184.946 80.4769 181.208 79.4895L179.676 85.2905C184.065 86.4498 189.283 87 195.277 87V81ZM181.208 79.4895C177.523 78.5161 174.645 76.9923 172.458 74.9981L168.416 79.4319C171.442 82.191 175.234 84.1172 179.676 85.2905L181.208 79.4895ZM172.525 75.0613C170.397 72.9977 168.757 70.3014 167.659 66.8707L161.945 68.6993C163.3 72.9353 165.417 76.5257 168.349 79.3687L172.525 75.0613ZM167.68 66.9385C166.634 63.3811 166.077 58.9676 166.077 53.64H160.077C160.077 59.3524 160.67 64.3689 161.924 68.6315L167.68 66.9385ZM166.077 53.64V33.86H160.077V53.64H166.077ZM166.077 33.86C166.077 28.5299 166.634 24.1624 167.676 20.692L161.929 18.968C160.67 23.1643 160.077 28.1501 160.077 33.86H166.077ZM167.659 20.7443C168.756 17.3184 170.388 14.6771 172.491 12.7015L168.383 8.32845C165.426 11.1062 163.302 14.675 161.945 18.9157L167.659 20.7443ZM172.493 12.6996C174.678 10.6437 177.543 9.09355 181.208 8.12551L179.676 2.32448C175.214 3.50311 171.41 5.47964 168.381 8.33039L172.493 12.6996ZM181.259 8.11161C184.977 7.05925 189.63 6.49999 195.277 6.49999V0.499994C189.271 0.499994 184.033 1.09074 179.625 2.33838L181.259 8.11161ZM195.277 6.49999H253.582V0.499994H195.277V6.49999ZM295.877 6.49999C296.057 6.49999 296.093 6.52361 296.035 6.50417C295.962 6.47988 295.809 6.40947 295.653 6.25381C295.497 6.09816 295.427 5.94467 295.403 5.8718C295.383 5.81347 295.407 5.84938 295.407 6.03H301.407C301.407 4.72423 301.078 3.19388 299.896 2.01118C298.713 0.828468 297.183 0.499994 295.877 0.499994V6.49999ZM295.407 6.03V81.47H301.407V6.03H295.407ZM295.407 81.47C295.407 81.6506 295.383 81.6865 295.403 81.6282C295.427 81.5553 295.497 81.4018 295.653 81.2462C295.809 81.0905 295.962 81.0201 296.035 80.9958C296.093 80.9764 296.057 81 295.877 81V87C297.183 87 298.713 86.6715 299.896 85.4888C301.078 84.3061 301.407 82.7758 301.407 81.47H295.407ZM295.877 81H283.457V87H295.877V81ZM283.457 81C283.246 81 283.18 80.9737 283.211 80.9836C283.255 80.9977 283.395 81.054 283.547 81.1996C283.702 81.3479 283.78 81.5025 283.81 81.5896C283.835 81.6609 283.812 81.6388 283.812 81.47H277.812C277.812 82.8106 278.169 84.3586 279.399 85.5354C280.605 86.6885 282.145 87 283.457 87V81ZM283.812 81.47V6.03H277.812V81.47H283.812ZM283.812 6.03C283.812 5.8612 283.835 5.83912 283.81 5.91035C283.78 5.99749 283.702 6.15206 283.547 6.30042C283.395 6.44604 283.255 6.50228 283.211 6.51635C283.18 6.5263 283.246 6.49999 283.457 6.49999V0.499994C282.145 0.499994 280.605 0.811516 279.399 1.96457C278.169 3.14145 277.812 4.68941 277.812 6.03H283.812ZM283.457 6.49999H295.877V0.499994H283.457V6.49999ZM375.472 19.945V16.945H372.472V19.945H375.472ZM357.877 19.945H360.877V16.945H357.877V19.945ZM411.582 6.49999C411.793 6.49999 411.859 6.5263 411.828 6.51635C411.784 6.50228 411.644 6.44604 411.492 6.30042C411.337 6.15206 411.259 5.99749 411.229 5.91035C411.204 5.83912 411.227 5.8612 411.227 6.03H417.227C417.227 4.68941 416.87 3.14145 415.64 1.96457C414.434 0.811516 412.894 0.499994 411.582 0.499994V6.49999ZM411.227 6.03V17.3H417.227V6.03H411.227ZM411.227 17.3C411.227 17.4998 411.201 17.5525 411.216 17.5085C411.235 17.45 411.298 17.3085 411.445 17.1624C411.591 17.0164 411.732 16.9531 411.791 16.9336C411.835 16.919 411.782 16.945 411.582 16.945V22.945C412.926 22.945 414.485 22.6069 415.687 21.4051C416.889 20.2032 417.227 18.6441 417.227 17.3H411.227ZM411.582 16.945H375.472V22.945H411.582V16.945ZM372.472 19.945V81.47H378.472V19.945H372.472ZM372.472 81.47C372.472 81.6506 372.449 81.6865 372.468 81.6282C372.492 81.5553 372.563 81.4018 372.718 81.2462C372.874 81.0905 373.027 81.0201 373.1 80.9958C373.159 80.9764 373.123 81 372.942 81V87C374.248 87 375.778 86.6715 376.961 85.4888C378.144 84.3061 378.472 82.7758 378.472 81.47H372.472ZM372.942 81H360.407V87H372.942V81ZM360.407 81C360.227 81 360.191 80.9764 360.249 80.9958C360.322 81.0201 360.475 81.0905 360.631 81.2462C360.787 81.4018 360.857 81.5553 360.881 81.6282C360.901 81.6865 360.877 81.6506 360.877 81.47H354.877C354.877 82.7758 355.206 84.3061 356.388 85.4888C357.571 86.6715 359.101 87 360.407 87V81ZM360.877 81.47V19.945H354.877V81.47H360.877ZM357.877 16.945H321.767V22.945H357.877V16.945ZM321.767 16.945C321.567 16.945 321.515 16.919 321.559 16.9336C321.617 16.9531 321.759 17.0164 321.905 17.1624C322.051 17.3085 322.114 17.45 322.134 17.5085C322.148 17.5525 322.122 17.4998 322.122 17.3H316.122C316.122 18.6441 316.46 20.2032 317.662 21.4051C318.864 22.6069 320.423 22.945 321.767 22.945V16.945ZM322.122 17.3V6.03H316.122V17.3H322.122ZM322.122 6.03C322.122 5.8612 322.145 5.83912 322.12 5.91035C322.09 5.99749 322.012 6.15206 321.857 6.30042C321.705 6.44604 321.565 6.50228 321.521 6.51635C321.49 6.5263 321.556 6.49999 321.767 6.49999V0.499994C320.456 0.499994 318.915 0.811516 317.71 1.96457C316.479 3.14145 316.122 4.68941 316.122 6.03H322.122ZM321.767 6.49999H411.582V0.499994H321.767V6.49999ZM478.301 5.34L476.729 7.89497L476.765 7.91728L476.802 7.93856L478.301 5.34ZM484.166 12.24L486.794 10.7927L486.788 10.7831L484.166 12.24ZM522.231 81.355L524.914 80.0134L524.888 79.96L524.859 79.9077L522.231 81.355ZM522.461 83.31L519.704 82.1283L519.654 82.2429L519.615 82.3613L522.461 83.31ZM503.601 82.505L506.325 81.2478L506.28 81.1515L506.229 81.0585L503.601 82.505ZM495.436 67.67L498.064 66.2235L497.209 64.67H495.436V67.67ZM441.386 67.67V64.67H439.588L438.741 66.255L441.386 67.67ZM433.451 82.505L436.092 83.9273L436.096 83.92L433.451 82.505ZM414.016 83.31L411.131 84.1342L411.208 84.4023L411.333 84.6516L414.016 83.31ZM414.361 81.355L411.728 79.9178L411.702 79.9651L411.678 80.0134L414.361 81.355ZM452.081 12.24L449.459 10.7831L449.453 10.7929L449.448 10.8028L452.081 12.24ZM457.716 5.34L459.306 7.88399L459.343 7.86061L459.38 7.83615L457.716 5.34ZM448.631 54.33L445.987 52.9131L443.62 57.33H448.631V54.33ZM488.191 54.33V57.33H493.232L490.828 52.8991L488.191 54.33ZM469.906 20.635L472.543 19.2041L472.527 19.1752L472.511 19.1466L469.906 20.635ZM466.686 20.635L464.081 19.1466L464.061 19.1821L464.042 19.2181L466.686 20.635ZM470.941 6.49999C473.434 6.49999 475.311 7.02281 476.729 7.89497L479.873 2.78503C477.304 1.20385 474.274 0.499994 470.941 0.499994V6.49999ZM476.802 7.93856C478.097 8.68579 479.725 10.4236 481.544 13.6969L486.788 10.7831C484.774 7.15643 482.492 4.29421 479.8 2.74144L476.802 7.93856ZM481.538 13.6873L519.603 82.8023L524.859 79.9077L486.794 10.7927L481.538 13.6873ZM519.548 82.6966C519.629 82.8593 519.609 82.876 519.597 82.7693C519.581 82.6396 519.587 82.4 519.704 82.1283L525.218 84.4917C525.934 82.8225 525.503 81.1911 524.914 80.0134L519.548 82.6966ZM519.615 82.3613C519.725 82.0316 519.912 81.7315 520.153 81.4905C520.384 81.2595 520.613 81.134 520.762 81.0701C521.02 80.9595 521.113 81 520.851 81V87C521.509 87 522.331 86.9255 523.125 86.5849C524.006 86.2075 524.904 85.4665 525.307 84.2587L519.615 82.3613ZM520.851 81H506.246V87H520.851V81ZM506.246 81C505.967 81 505.963 80.9463 506.083 81.0146C506.144 81.0489 506.206 81.0978 506.258 81.1553C506.308 81.2111 506.326 81.2501 506.325 81.2478L500.877 83.7622C501.347 84.7811 502.096 85.6529 503.131 86.2379C504.134 86.8046 505.222 87 506.246 87V81ZM506.229 81.0585L498.064 66.2235L492.808 69.1165L500.973 83.9515L506.229 81.0585ZM495.436 64.67H441.386V70.67H495.436V64.67ZM438.741 66.255L430.806 81.09L436.096 83.92L444.031 69.085L438.741 66.255ZM430.81 81.0827C430.789 81.1208 430.785 81.118 430.807 81.0943C430.818 81.0829 430.833 81.0689 430.852 81.0541C430.871 81.0393 430.891 81.0259 430.911 81.0146C430.931 81.0033 430.948 80.9958 430.96 80.9912C430.972 80.9866 430.976 80.9859 430.971 80.987C430.961 80.9893 430.91 81 430.806 81V87C431.828 87 432.886 86.7903 433.863 86.2379C434.854 85.6782 435.588 84.8636 436.092 83.9273L430.81 81.0827ZM430.806 81H415.856V87H430.806V81ZM415.856 81C415.549 81 415.544 80.9592 415.702 81.0185C415.903 81.0939 416.39 81.3505 416.699 81.9684L411.333 84.6516C412.414 86.8134 414.777 87 415.856 87V81ZM416.901 82.4858C416.97 82.7289 416.949 82.9004 416.942 82.9401C416.938 82.9579 416.939 82.9465 416.954 82.9029C416.969 82.8594 416.997 82.7911 417.044 82.6966L411.678 80.0134C411.133 81.1038 410.686 82.5734 411.131 84.1342L416.901 82.4858ZM416.994 82.7922L454.714 13.6772L449.448 10.8028L411.728 79.9178L416.994 82.7922ZM454.703 13.6969C456.545 10.3817 458.121 8.62492 459.306 7.88399L456.126 2.796C453.632 4.35507 451.45 7.19829 449.459 10.7831L454.703 13.6969ZM459.38 7.83615C460.674 6.97347 462.228 6.49999 464.156 6.49999V0.499994C461.178 0.499994 458.438 1.25319 456.052 2.84385L459.38 7.83615ZM464.156 6.49999H470.941V0.499994H464.156V6.49999ZM448.631 57.33H488.191V51.33H448.631V57.33ZM490.828 52.8991L472.543 19.2041L467.269 22.0659L485.554 55.7609L490.828 52.8991ZM472.511 19.1466C471.767 17.8452 470.437 16.83 468.641 16.83V22.83C468.383 22.83 468.055 22.7571 467.749 22.5622C467.463 22.38 467.333 22.1796 467.301 22.1234L472.511 19.1466ZM468.641 16.83H467.951V22.83H468.641V16.83ZM467.951 16.83C466.155 16.83 464.825 17.8452 464.081 19.1466L469.291 22.1234C469.259 22.1796 469.129 22.38 468.843 22.5622C468.537 22.7571 468.209 22.83 467.951 22.83V16.83ZM464.042 19.2181L445.987 52.9131L451.275 55.7469L469.33 22.0519L464.042 19.2181ZM555.762 59.62L552.833 60.2708L552.847 60.3357L552.865 60.3999L555.762 59.62ZM558.292 64.45L556.103 66.5018L556.136 66.5371L556.17 66.5713L558.292 64.45ZM562.892 66.98L562.083 69.8689L562.149 69.8876L562.217 69.9032L562.892 66.98ZM544.837 77.215L542.748 79.3687L542.781 79.4008L542.815 79.4319L544.837 77.215ZM539.202 67.785L536.323 68.6315L536.333 68.6655L536.344 68.6993L539.202 67.785ZM552.542 6.49999C552.722 6.49999 552.758 6.52361 552.7 6.50417C552.627 6.47988 552.473 6.40947 552.318 6.25381C552.162 6.09816 552.092 5.94467 552.067 5.8718C552.048 5.81347 552.072 5.84938 552.072 6.03H558.072C558.072 4.72423 557.743 3.19388 556.56 2.01118C555.378 0.828468 553.847 0.499994 552.542 0.499994V6.49999ZM552.072 6.03V51.915H558.072V6.03H552.072ZM552.072 51.915C552.072 55.1126 552.31 57.9156 552.833 60.2708L558.69 58.9692C558.294 57.1843 558.072 54.8507 558.072 51.915H552.072ZM552.865 60.3999C553.501 62.762 554.548 64.8428 556.103 66.5018L560.48 62.3982C559.736 61.6038 559.096 60.4647 558.658 58.8401L552.865 60.3999ZM556.17 66.5713C557.758 68.1588 559.78 69.2242 562.083 69.8689L563.7 64.0911C562.17 63.6625 561.125 63.0412 560.413 62.3287L556.17 66.5713ZM562.217 69.9032C564.507 70.4317 567.244 70.67 570.367 70.67V64.67C567.51 64.67 565.262 64.4483 563.566 64.0568L562.217 69.9032ZM570.367 70.67H616.942V64.67H570.367V70.67ZM616.942 70.67C617.122 70.67 617.158 70.6936 617.1 70.6742C617.027 70.6499 616.873 70.5795 616.718 70.4238C616.562 70.2682 616.492 70.1147 616.467 70.0418C616.448 69.9835 616.472 70.0194 616.472 70.2H622.472C622.472 68.8942 622.143 67.3639 620.96 66.1812C619.778 64.9985 618.247 64.67 616.942 64.67V70.67ZM616.472 70.2V81.47H622.472V70.2H616.472ZM616.472 81.47C616.472 81.6506 616.448 81.6865 616.467 81.6282C616.492 81.5553 616.562 81.4018 616.718 81.2462C616.873 81.0905 617.027 81.0201 617.1 80.9958C617.158 80.9764 617.122 81 616.942 81V87C618.247 87 619.778 86.6715 620.96 85.4888C622.143 84.3061 622.472 82.7758 622.472 81.47H616.472ZM616.942 81H569.677V87H616.942V81ZM569.677 81C564.017 81 559.346 80.4769 555.608 79.4895L554.075 85.2905C558.464 86.4498 563.683 87 569.677 87V81ZM555.608 79.4895C551.923 78.5161 549.045 76.9923 546.858 74.9981L542.815 79.4319C545.841 82.191 549.634 84.1172 554.075 85.2905L555.608 79.4895ZM546.925 75.0613C544.797 72.9977 543.157 70.3014 542.059 66.8707L536.344 68.6993C537.7 72.9353 539.816 76.5257 542.748 79.3687L546.925 75.0613ZM542.08 66.9385C541.033 63.3811 540.477 58.9676 540.477 53.64H534.477C534.477 59.3524 535.07 64.3689 536.323 68.6315L542.08 66.9385ZM540.477 53.64V6.03H534.477V53.64H540.477ZM540.477 6.03C540.477 5.8612 540.5 5.83912 540.475 5.91035C540.444 5.99749 540.367 6.15206 540.211 6.30042C540.059 6.44604 539.92 6.50228 539.876 6.51635C539.844 6.5263 539.911 6.49999 540.122 6.49999V0.499994C538.81 0.499994 537.27 0.811516 536.064 1.96457C534.834 3.14145 534.477 4.68941 534.477 6.03H540.477ZM540.122 6.49999H552.542V0.499994H540.122V6.49999ZM664.921 41.23C665.148 41.23 664.768 41.2849 664.352 40.8688C663.936 40.4528 663.991 40.0724 663.991 40.3H669.991C669.991 39.1476 669.701 37.7322 668.595 36.6262C667.489 35.5201 666.073 35.23 664.921 35.23V41.23ZM663.991 40.3V48.58H669.991V40.3H663.991ZM663.991 48.58C663.991 48.8076 663.936 48.4272 664.352 48.0112C664.768 47.5951 665.148 47.65 664.921 47.65V53.65C666.073 53.65 667.489 53.3599 668.595 52.2538C669.701 51.1478 669.991 49.7324 669.991 48.58H663.991ZM664.921 47.65H630.306V53.65H664.921V47.65ZM630.306 47.65C630.078 47.65 630.459 47.5951 630.875 48.0112C631.291 48.4272 631.236 48.8076 631.236 48.58H625.236C625.236 49.7324 625.526 51.1478 626.632 52.2538C627.738 53.3599 629.153 53.65 630.306 53.65V47.65ZM631.236 48.58V40.3H625.236V48.58H631.236ZM631.236 40.3C631.236 40.0724 631.291 40.4528 630.875 40.8688C630.459 41.2849 630.078 41.23 630.306 41.23V35.23C629.153 35.23 627.738 35.5201 626.632 36.6262C625.526 37.7322 625.236 39.1476 625.236 40.3H631.236ZM630.306 41.23H664.921V35.23H630.306V41.23ZM717.917 5.22499L716.117 7.625L716.184 7.67496L716.253 7.72114L717.917 5.22499ZM720.332 7.86999L717.76 9.41348L717.821 9.51622L717.891 9.6137L720.332 7.86999ZM722.632 12.24L719.863 13.3938L719.871 13.4134L719.879 13.4328L722.632 12.24ZM746.552 67.44L743.799 68.6328L743.805 68.6456L743.811 68.6584L746.552 67.44ZM751.152 67.44L753.893 68.6584L753.899 68.6456L753.905 68.6328L751.152 67.44ZM775.072 12.24L777.825 13.4328L777.833 13.4134L777.841 13.3938L775.072 12.24ZM777.257 7.86999L774.761 6.20588L774.747 6.22669L774.733 6.24772L777.257 7.86999ZM779.787 5.22499L781.451 7.72114L781.52 7.67496L781.587 7.625L779.787 5.22499ZM782.892 3.845L782.339 0.896381L782.321 0.899712L782.304 0.903255L782.892 3.845ZM807.617 6.25999L805.217 8.05999L805.235 8.08465L805.254 8.10892L807.617 6.25999ZM789.332 21.21L792.067 22.4431L792.107 22.3545L792.141 22.2634L789.332 21.21ZM766.102 72.73L763.367 71.4969L763.364 71.5042L763.361 71.5116L766.102 72.73ZM763.227 78.02L760.751 76.326L760.741 76.3409L760.731 76.3559L763.227 78.02ZM760.122 81.47L758.248 79.1274L758.208 79.1591L758.17 79.1922L760.122 81.47ZM756.327 83.425L755.563 80.5238L755.544 80.529L755.524 80.5344L756.327 83.425ZM740.802 83.425L739.999 86.3156L740.019 86.321L740.039 86.3262L740.802 83.425ZM737.007 81.47L735.055 83.7478L735.093 83.7809L735.133 83.8126L737.007 81.47ZM733.902 78.02L731.366 79.622L731.415 79.7009L731.47 79.7765L733.902 78.02ZM731.142 72.73L733.883 71.5116L733.88 71.5042L733.877 71.4969L731.142 72.73ZM707.912 21.21L705.103 22.2634L705.137 22.3545L705.177 22.4431L707.912 21.21ZM689.627 6.25999L691.99 8.10892L692.008 8.08465L692.027 8.05999L689.627 6.25999ZM710.327 6.49999C711.888 6.49999 713.151 6.60731 714.144 6.79361L715.25 0.896381C713.79 0.622683 712.139 0.499994 710.327 0.499994V6.49999ZM714.144 6.79361C714.958 6.94617 715.596 7.23411 716.117 7.625L719.717 2.82499C718.398 1.83588 716.89 1.20382 715.25 0.896381L714.144 6.79361ZM716.253 7.72114C716.733 8.04126 717.25 8.56467 717.76 9.41348L722.904 6.3265C722.034 4.87532 720.941 3.63539 719.581 2.72884L716.253 7.72114ZM717.891 9.6137C718.478 10.4356 719.144 11.6679 719.863 13.3938L725.401 11.0862C724.587 9.13214 723.719 7.45107 722.773 6.12628L717.891 9.6137ZM719.879 13.4328L743.799 68.6328L749.305 66.2472L725.385 11.0472L719.879 13.4328ZM743.811 68.6584C744.157 69.4384 744.717 70.1964 745.562 70.7398C746.404 71.2812 747.321 71.475 748.162 71.475V65.475C748.237 65.475 748.501 65.4963 748.807 65.6927C749.115 65.8911 749.253 66.1316 749.293 66.2216L743.811 68.6584ZM748.162 71.475H749.542V65.475H748.162V71.475ZM749.542 71.475C750.383 71.475 751.3 71.2812 752.142 70.7398C752.987 70.1964 753.547 69.4384 753.893 68.6584L748.411 66.2216C748.451 66.1316 748.589 65.8911 748.897 65.6927C749.203 65.4963 749.467 65.475 749.542 65.475V71.475ZM753.905 68.6328L777.825 13.4328L772.319 11.0472L748.399 66.2472L753.905 68.6328ZM777.841 13.3938C778.573 11.6371 779.224 10.3586 779.781 9.49226L774.733 6.24772C773.91 7.52805 773.104 9.16294 772.303 11.0862L777.841 13.3938ZM779.753 9.5341C780.353 8.63406 780.932 8.06729 781.451 7.72114L778.123 2.72885C776.802 3.60936 775.694 4.80593 774.761 6.20588L779.753 9.5341ZM781.587 7.625C782.141 7.20922 782.761 6.93069 783.48 6.78674L782.304 0.903255C780.723 1.21931 779.273 1.86077 777.987 2.82499L781.587 7.625ZM783.445 6.79361C784.438 6.60731 785.701 6.49999 787.262 6.49999V0.499994C785.45 0.499994 783.799 0.622683 782.339 0.896381L783.445 6.79361ZM787.262 6.49999H799.567V0.499994H787.262V6.49999ZM799.567 6.49999C803.283 6.49999 804.713 7.38756 805.217 8.05999L810.017 4.45999C807.761 1.45243 803.824 0.499994 799.567 0.499994V6.49999ZM805.254 8.10892C805.98 9.03549 806.687 11.2176 806.687 15.46H812.687C812.687 10.9624 812.014 7.01117 809.979 4.41107L805.254 8.10892ZM806.687 15.46V81.47H812.687V15.46H806.687ZM806.687 81.47C806.687 81.6388 806.664 81.6609 806.689 81.5896C806.719 81.5025 806.797 81.3479 806.952 81.1996C807.104 81.054 807.244 80.9977 807.288 80.9836C807.319 80.9737 807.253 81 807.042 81V87C808.354 87 809.894 86.6885 811.099 85.5354C812.33 84.3586 812.687 82.8106 812.687 81.47H806.687ZM807.042 81H795.312V87H807.042V81ZM795.312 81C795.131 81 795.095 80.9764 795.154 80.9958C795.227 81.0201 795.38 81.0905 795.536 81.2462C795.691 81.4018 795.762 81.5553 795.786 81.6282C795.806 81.6865 795.782 81.6506 795.782 81.47H789.782C789.782 82.7758 790.11 84.3061 791.293 85.4888C792.476 86.6715 794.006 87 795.312 87V81ZM795.782 81.47V21.44H789.782V81.47H795.782ZM795.782 21.44C795.782 20.7361 795.654 19.6531 794.895 18.7034C794.033 17.6259 792.831 17.29 791.862 17.29V23.29C791.507 23.29 790.765 23.1458 790.209 22.4516C789.977 22.1616 789.872 21.8843 789.826 21.7099C789.802 21.6224 789.792 21.5541 789.787 21.5111C789.782 21.4679 789.782 21.4431 789.782 21.44H795.782ZM791.862 17.29H790.827V23.29H791.862V17.29ZM790.827 17.29C790.057 17.29 789.153 17.4435 788.306 17.965C787.422 18.5092 786.843 19.3046 786.523 20.1566L792.141 22.2634C792.051 22.5021 791.837 22.8374 791.451 23.075C791.101 23.2898 790.83 23.29 790.827 23.29V17.29ZM786.597 19.9769L763.367 71.4969L768.837 73.9631L792.067 22.4431L786.597 19.9769ZM763.361 71.5116C762.495 73.4594 761.621 75.0546 760.751 76.326L765.703 79.7141C766.826 78.072 767.869 76.1406 768.843 73.9484L763.361 71.5116ZM760.731 76.3559C759.961 77.511 759.129 78.4228 758.248 79.1274L761.996 83.8126C763.415 82.6772 764.653 81.289 765.723 79.6841L760.731 76.3559ZM758.17 79.1922C757.463 79.7981 756.611 80.2481 755.563 80.5238L757.09 86.3262C758.956 85.8353 760.635 84.9819 762.074 83.7478L758.17 79.1922ZM755.524 80.5344C754.477 80.8254 753.113 81 751.382 81V87C753.485 87 755.417 86.7913 757.13 86.3156L755.524 80.5344ZM751.382 81H745.862V87H751.382V81ZM745.862 81C744.137 81 742.716 80.8266 741.565 80.5238L740.039 86.3262C741.801 86.7901 743.754 87 745.862 87V81ZM741.605 80.5344C740.626 80.2626 739.724 79.8016 738.881 79.1274L735.133 83.8126C736.59 84.9784 738.218 85.8207 739.999 86.3156L741.605 80.5344ZM738.959 79.1922C738.098 78.454 737.219 77.4891 736.334 76.2635L731.47 79.7765C732.578 81.3109 733.769 82.646 735.055 83.7478L738.959 79.1922ZM736.438 76.418C735.616 75.1153 734.762 73.4876 733.883 71.5116L728.401 73.9484C729.362 76.1124 730.348 78.0114 731.366 79.622L736.438 76.418ZM733.877 71.4969L710.647 19.9769L705.177 22.4431L728.407 73.9631L733.877 71.4969ZM710.721 20.1566C710.401 19.3046 709.822 18.5092 708.938 17.965C708.091 17.4435 707.187 17.29 706.417 17.29V23.29C706.414 23.29 706.143 23.2898 705.793 23.075C705.407 22.8374 705.193 22.5021 705.103 22.2634L710.721 20.1566ZM706.417 17.29H705.382V23.29H706.417V17.29ZM705.382 17.29C704.413 17.29 703.211 17.6259 702.349 18.7034C701.59 19.6531 701.462 20.7361 701.462 21.44H707.462C707.462 21.4431 707.462 21.4679 707.457 21.5111C707.452 21.5541 707.442 21.6224 707.418 21.7099C707.372 21.8843 707.267 22.1616 707.035 22.4516C706.479 23.1458 705.737 23.29 705.382 23.29V17.29ZM701.462 21.44V81.47H707.462V21.44H701.462ZM701.462 81.47C701.462 81.6506 701.438 81.6865 701.458 81.6282C701.482 81.5553 701.552 81.4018 701.708 81.2462C701.864 81.0905 702.017 81.0201 702.09 80.9958C702.148 80.9764 702.113 81 701.932 81V87C703.238 87 704.768 86.6715 705.951 85.4888C707.133 84.3061 707.462 82.7758 707.462 81.47H701.462ZM701.932 81H690.202V87H701.932V81ZM690.202 81C689.991 81 689.925 80.9737 689.956 80.9836C690 80.9977 690.14 81.054 690.292 81.1996C690.447 81.3479 690.525 81.5025 690.555 81.5896C690.58 81.6609 690.557 81.6388 690.557 81.47H684.557C684.557 82.8106 684.914 84.3586 686.145 85.5354C687.35 86.6885 688.89 87 690.202 87V81ZM690.557 81.47V15.46H684.557V81.47H690.557ZM690.557 15.46C690.557 11.2176 691.264 9.03549 691.99 8.10892L687.264 4.41107C685.23 7.01117 684.557 10.9624 684.557 15.46H690.557ZM692.027 8.05999C692.523 7.39872 693.974 6.49999 697.792 6.49999V0.499994C693.483 0.499994 689.491 1.44127 687.227 4.45999L692.027 8.05999ZM697.792 6.49999H710.327V0.499994H697.792V6.49999ZM893.676 5.34L892.103 7.89497L892.14 7.91728L892.177 7.93856L893.676 5.34ZM899.541 12.24L902.168 10.7927L902.163 10.7831L899.541 12.24ZM937.606 81.355L940.289 80.0134L940.262 79.96L940.233 79.9077L937.606 81.355ZM937.836 83.31L935.078 82.1283L935.029 82.2429L934.99 82.3613L937.836 83.31ZM918.976 82.505L921.7 81.2478L921.655 81.1515L921.604 81.0585L918.976 82.505ZM910.811 67.67L913.439 66.2235L912.584 64.67H910.811V67.67ZM856.761 67.67V64.67H854.963L854.115 66.255L856.761 67.67ZM848.826 82.505L851.467 83.9273L851.471 83.92L848.826 82.505ZM829.391 83.31L826.506 84.1342L826.583 84.4023L826.707 84.6516L829.391 83.31ZM829.736 81.355L827.102 79.9178L827.076 79.9651L827.052 80.0134L829.736 81.355ZM867.456 12.24L864.833 10.7831L864.828 10.7929L864.822 10.8028L867.456 12.24ZM873.091 5.34L874.681 7.88399L874.718 7.86061L874.755 7.83615L873.091 5.34ZM864.006 54.33L861.361 52.9131L858.995 57.33H864.006V54.33ZM903.566 54.33V57.33H908.607L906.202 52.8991L903.566 54.33ZM885.281 20.635L887.917 19.2041L887.902 19.1752L887.885 19.1466L885.281 20.635ZM882.061 20.635L879.456 19.1466L879.436 19.1821L879.416 19.2181L882.061 20.635ZM886.316 6.49999C888.809 6.49999 890.686 7.02281 892.103 7.89497L895.248 2.78503C892.679 1.20385 889.649 0.499994 886.316 0.499994V6.49999ZM892.177 7.93856C893.472 8.68579 895.1 10.4236 896.918 13.6969L902.163 10.7831C900.148 7.15643 897.866 4.29421 895.175 2.74144L892.177 7.93856ZM896.913 13.6873L934.978 82.8023L940.233 79.9077L902.168 10.7927L896.913 13.6873ZM934.922 82.6966C935.004 82.8593 934.984 82.876 934.971 82.7693C934.956 82.6396 934.962 82.4 935.078 82.1283L940.593 84.4917C941.308 82.8225 940.878 81.1911 940.289 80.0134L934.922 82.6966ZM934.99 82.3613C935.099 82.0316 935.286 81.7315 935.527 81.4905C935.759 81.2595 935.987 81.134 936.136 81.0701C936.394 80.9595 936.487 81 936.226 81V87C936.884 87 937.705 86.9255 938.5 86.5849C939.381 86.2075 940.279 85.4665 940.682 84.2587L934.99 82.3613ZM936.226 81H921.621V87H936.226V81ZM921.621 81C921.341 81 921.337 80.9463 921.458 81.0146C921.519 81.0489 921.581 81.0978 921.632 81.1553C921.682 81.2111 921.701 81.2501 921.7 81.2478L916.252 83.7622C916.722 84.7811 917.471 85.6529 918.506 86.2379C919.508 86.8046 920.597 87 921.621 87V81ZM921.604 81.0585L913.439 66.2235L908.182 69.1165L916.347 83.9515L921.604 81.0585ZM910.811 64.67H856.761V70.67H910.811V64.67ZM854.115 66.255L846.18 81.09L851.471 83.92L859.406 69.085L854.115 66.255ZM846.184 81.0827C846.164 81.1208 846.16 81.118 846.182 81.0943C846.193 81.0829 846.208 81.0689 846.227 81.0541C846.246 81.0393 846.266 81.0259 846.286 81.0146C846.306 81.0033 846.323 80.9958 846.334 80.9912C846.346 80.9866 846.351 80.9859 846.346 80.987C846.336 80.9893 846.285 81 846.181 81V87C847.202 87 848.261 86.7903 849.238 86.2379C850.228 85.6782 850.963 84.8636 851.467 83.9273L846.184 81.0827ZM846.181 81H831.231V87H846.181V81ZM831.231 81C830.924 81 830.918 80.9592 831.077 81.0185C831.277 81.0939 831.765 81.3505 832.074 81.9684L826.707 84.6516C827.788 86.8134 830.152 87 831.231 87V81ZM832.275 82.4858C832.345 82.7289 832.323 82.9004 832.316 82.9401C832.313 82.9579 832.314 82.9465 832.329 82.9029C832.344 82.8594 832.372 82.7911 832.419 82.6966L827.052 80.0134C826.507 81.1038 826.06 82.5734 826.506 84.1342L832.275 82.4858ZM832.369 82.7922L870.089 13.6772L864.822 10.8028L827.102 79.9178L832.369 82.7922ZM870.078 13.6969C871.92 10.3817 873.495 8.62492 874.681 7.88399L871.501 2.796C869.006 4.35507 866.825 7.19829 864.833 10.7831L870.078 13.6969ZM874.755 7.83615C876.049 6.97347 877.602 6.49999 879.531 6.49999V0.499994C876.552 0.499994 873.813 1.25319 871.427 2.84385L874.755 7.83615ZM879.531 6.49999H886.316V0.499994H879.531V6.49999ZM864.006 57.33H903.566V51.33H864.006V57.33ZM906.202 52.8991L887.917 19.2041L882.644 22.0659L900.929 55.7609L906.202 52.8991ZM887.885 19.1466C887.142 17.8452 885.811 16.83 884.016 16.83V22.83C883.757 22.83 883.43 22.7571 883.124 22.5622C882.837 22.38 882.708 22.1796 882.676 22.1234L887.885 19.1466ZM884.016 16.83H883.326V22.83H884.016V16.83ZM883.326 16.83C881.53 16.83 880.2 17.8452 879.456 19.1466L884.665 22.1234C884.633 22.1796 884.504 22.38 884.218 22.5622C883.911 22.7571 883.584 22.83 883.326 22.83V16.83ZM879.416 19.2181L861.361 52.9131L866.65 55.7469L884.705 22.0519L879.416 19.2181ZM1041.87 9.48L1039.7 11.5593L1041.87 9.48ZM1041.87 53.41L1044.03 55.4893L1041.87 53.41ZM975.281 59.39V56.39H972.281V59.39H975.281ZM975.281 44.21H972.281V47.21H975.281V44.21ZM1027.61 41.68L1025.44 39.6086V39.6086L1027.61 41.68ZM1027.61 21.9L1025.44 23.9714L1027.61 21.9ZM1022.89 6.49999C1031.36 6.49999 1036.69 8.43028 1039.7 11.5593L1044.03 7.40067C1039.37 2.55638 1032.05 0.499994 1022.89 0.499994V6.49999ZM1039.7 11.5593C1042.81 14.7913 1044.62 19.8227 1044.62 27.19H1050.62C1050.62 18.9173 1048.59 12.142 1044.03 7.40067L1039.7 11.5593ZM1044.62 27.19V35.7H1050.62V27.19H1044.62ZM1044.62 35.7C1044.62 43.0673 1042.81 48.0987 1039.7 51.3307L1044.03 55.4893C1048.59 50.748 1050.62 43.9727 1050.62 35.7H1044.62ZM1039.7 51.3307C1036.69 54.4597 1031.36 56.39 1022.89 56.39V62.39C1032.05 62.39 1039.37 60.3336 1044.03 55.4893L1039.7 51.3307ZM1022.89 56.39H975.281V62.39H1022.89V56.39ZM972.281 59.39V81.47H978.281V59.39H972.281ZM972.281 81.47C972.281 81.6506 972.257 81.6865 972.277 81.6282C972.301 81.5553 972.371 81.4018 972.527 81.2462C972.683 81.0905 972.836 81.0201 972.909 80.9958C972.967 80.9764 972.931 81 972.751 81V87C974.056 87 975.587 86.6715 976.77 85.4888C977.952 84.3061 978.281 82.7758 978.281 81.47H972.281ZM972.751 81H960.331V87H972.751V81ZM960.331 81C960.12 81 960.054 80.9737 960.085 80.9836C960.129 80.9977 960.268 81.054 960.421 81.1996C960.576 81.3479 960.654 81.5025 960.684 81.5896C960.709 81.6609 960.686 81.6388 960.686 81.47H954.686C954.686 82.8106 955.043 84.3586 956.273 85.5354C957.479 86.6885 959.019 87 960.331 87V81ZM960.686 81.47V6.95H954.686V81.47H960.686ZM960.686 6.95C960.686 6.61604 960.729 6.44597 960.747 6.3893C960.761 6.34717 960.749 6.40483 960.669 6.48381C960.591 6.5628 960.533 6.57571 960.575 6.56167C960.632 6.54278 960.802 6.49999 961.136 6.49999V0.499994C959.523 0.499994 957.763 0.905136 956.427 2.24118C955.091 3.57722 954.686 5.33756 954.686 6.95H960.686ZM961.136 6.49999H1022.89V0.499994H961.136V6.49999ZM975.281 47.21H1019.33V41.21H975.281V47.21ZM1019.33 47.21C1023.53 47.21 1027.32 46.327 1029.78 43.7514L1025.44 39.6086C1024.67 40.4063 1022.94 41.21 1019.33 41.21V47.21ZM1029.78 43.7514C1032.13 41.2891 1033.02 37.8314 1033.02 33.975H1027.02C1027.02 37.0186 1026.31 38.6975 1025.44 39.6086L1029.78 43.7514ZM1033.02 33.975V29.605H1027.02V33.975H1033.02ZM1033.02 29.605C1033.02 25.7486 1032.13 22.2909 1029.78 19.8286L1025.44 23.9714C1026.31 24.8825 1027.02 26.5614 1027.02 29.605H1033.02ZM1029.78 19.8286C1027.32 17.253 1023.53 16.37 1019.33 16.37V22.37C1022.94 22.37 1024.67 23.1737 1025.44 23.9714L1029.78 19.8286ZM1019.33 16.37H976.776V22.37H1019.33V16.37ZM976.776 16.37C975.872 16.37 974.635 16.5736 973.62 17.5106C972.559 18.4895 972.281 19.7632 972.281 20.75H978.281C978.281 20.8168 978.251 21.4005 977.689 21.9194C977.173 22.3964 976.683 22.37 976.776 22.37V16.37ZM972.281 20.75V44.21H978.281V20.75H972.281ZM1086.93 36.62H1083.93V39.62H1086.93V36.62ZM1101.19 36.505L1101.38 39.4992L1101.47 39.4934L1101.56 39.4818L1101.19 36.505ZM1106.94 34.09L1104.93 31.8601V31.8601L1106.94 34.09ZM1109.35 31.445L1111.71 33.2985L1111.74 33.2703L1111.76 33.2417L1109.35 31.445ZM1129.13 4.995L1131.54 6.79165L1131.56 6.76539L1131.58 6.73871L1129.13 4.995ZM1148.45 4.53499L1145.53 5.18578L1145.57 5.39127L1145.65 5.58837L1148.45 4.53499ZM1148.22 6.25999L1150.6 8.0946L1150.63 8.0498L1150.67 8.00371L1148.22 6.25999ZM1125.91 35.125L1123.54 33.2904L1123.52 33.3159L1123.5 33.3418L1125.91 35.125ZM1122.23 39.61L1120.05 37.5582L1120.01 37.5957L1119.98 37.6345L1122.23 39.61ZM1119.01 42.83L1117.06 40.5522L1113.94 43.2292L1117.44 45.385L1119.01 42.83ZM1127.75 51.11L1125.38 52.9415L1125.39 52.9545L1125.4 52.9675L1127.75 51.11ZM1151.33 81.01L1148.97 82.8675L1148.98 82.8758L1148.99 82.8841L1151.33 81.01ZM1151.67 82.85L1154.66 83.1485L1154.66 83.1351L1154.66 83.1216L1151.67 82.85ZM1131.89 82.505L1134.34 80.7613L1134.3 80.715L1134.27 80.6701L1131.89 82.505ZM1110.73 55.135L1108.36 56.9641L1108.36 56.9699L1110.73 55.135ZM1105.79 51.11L1104.59 53.8612L1104.64 53.8834L1104.7 53.9037L1105.79 51.11ZM1086.93 49.96V46.96H1083.93V49.96H1086.93ZM1084.4 6.49999C1084.58 6.49999 1084.62 6.52361 1084.56 6.50417C1084.48 6.47988 1084.33 6.40947 1084.18 6.25381C1084.02 6.09816 1083.95 5.94467 1083.93 5.8718C1083.91 5.81347 1083.93 5.84938 1083.93 6.03H1089.93C1089.93 4.72423 1089.6 3.19388 1088.42 2.01118C1087.24 0.828468 1085.71 0.499994 1084.4 0.499994V6.49999ZM1083.93 6.03V36.62H1089.93V6.03H1083.93ZM1086.93 39.62H1096.59V33.62H1086.93V39.62ZM1096.59 39.62C1098.46 39.62 1100.07 39.5811 1101.38 39.4992L1101 33.5108C1099.86 33.5822 1098.39 33.62 1096.59 33.62V39.62ZM1101.56 39.4818C1103 39.3026 1104.34 38.9782 1105.56 38.4692L1103.26 32.9308C1102.64 33.1885 1101.84 33.4007 1100.82 33.5282L1101.56 39.4818ZM1105.56 38.4692C1106.81 37.951 1107.94 37.2285 1108.95 36.3199L1104.93 31.8601C1104.41 32.3315 1103.85 32.6823 1103.26 32.9308L1105.56 38.4692ZM1108.95 36.3199C1109.87 35.4848 1110.8 34.4666 1111.71 33.2985L1107 29.5915C1106.23 30.57 1105.54 31.3152 1104.93 31.8601L1108.95 36.3199ZM1111.76 33.2417L1131.54 6.79165L1126.73 3.19834L1106.95 29.6483L1111.76 33.2417ZM1131.58 6.73871C1131.69 6.57715 1131.78 6.47931 1131.83 6.42632C1131.88 6.37276 1131.89 6.38292 1131.83 6.41747L1128.74 1.27252C1127.88 1.7901 1127.21 2.5251 1126.69 3.25128L1131.58 6.73871ZM1131.83 6.41747C1131.67 6.5139 1131.55 6.55138 1131.53 6.55925C1131.5 6.56844 1131.51 6.5614 1131.59 6.54953C1131.74 6.52473 1132.03 6.49999 1132.47 6.49999V0.499994C1131.84 0.499994 1131.22 0.532755 1130.65 0.622957C1130.12 0.706566 1129.41 0.871922 1128.74 1.27252L1131.83 6.41747ZM1132.47 6.49999H1146.73V0.499994H1132.47V6.49999ZM1146.73 6.49999C1146.93 6.49999 1146.72 6.54271 1146.36 6.33122C1146.17 6.21515 1145.97 6.0419 1145.81 5.80866C1145.65 5.5785 1145.56 5.35448 1145.53 5.18578L1151.38 3.88421C1151.14 2.78449 1150.49 1.80723 1149.45 1.18627C1148.52 0.629782 1147.53 0.499994 1146.73 0.499994V6.49999ZM1145.65 5.58837C1145.61 5.4932 1145.56 5.29204 1145.6 5.02976C1145.63 4.76839 1145.73 4.59161 1145.78 4.51628L1150.67 8.00371C1151.62 6.66077 1151.85 5.03807 1151.26 3.48162L1145.65 5.58837ZM1145.85 4.42538L1123.54 33.2904L1128.29 36.9596L1150.6 8.0946L1145.85 4.42538ZM1123.5 33.3418C1122.25 35.0378 1121.1 36.4377 1120.05 37.5582L1124.42 41.6618C1125.67 40.329 1126.97 38.7389 1128.33 36.9082L1123.5 33.3418ZM1119.98 37.6345C1118.98 38.7692 1118.01 39.7384 1117.06 40.5522L1120.97 45.1078C1122.16 44.0816 1123.34 42.9042 1124.49 41.5855L1119.98 37.6345ZM1117.44 45.385C1120.04 46.9839 1122.7 49.4615 1125.38 52.9415L1130.13 49.2785C1127.14 45.3985 1123.97 42.3561 1120.59 40.275L1117.44 45.385ZM1125.4 52.9675L1148.97 82.8675L1153.69 79.1525L1130.11 49.2525L1125.4 52.9675ZM1148.99 82.8841C1148.76 82.6015 1148.71 82.3592 1148.7 82.3104C1148.69 82.2682 1148.71 82.341 1148.69 82.5784L1154.66 83.1216C1154.76 82.0245 1154.71 80.4353 1153.67 79.1359L1148.99 82.8841ZM1148.69 82.5515C1148.71 82.3683 1148.77 82.0981 1148.94 81.8096C1149.12 81.5155 1149.35 81.3037 1149.57 81.1685C1149.94 80.9348 1150.15 81 1149.83 81V87C1150.67 87 1151.76 86.8736 1152.75 86.2565C1153.9 85.5366 1154.54 84.3861 1154.66 83.1485L1148.69 82.5515ZM1149.83 81H1135.11V87H1149.83V81ZM1135.11 81C1134.72 81 1134.47 80.9762 1134.34 80.9546C1134.28 80.9444 1134.27 80.9392 1134.31 80.9499C1134.34 80.9597 1134.44 80.9959 1134.59 81.0825L1131.5 86.2275C1132.65 86.9187 1134.09 87 1135.11 87V81ZM1134.59 81.0825C1134.65 81.1171 1134.64 81.1272 1134.59 81.0737C1134.54 81.0207 1134.45 80.9229 1134.34 80.7613L1129.45 84.2487C1129.97 84.9749 1130.64 85.7099 1131.5 86.2275L1134.59 81.0825ZM1134.27 80.6701L1113.11 53.3001L1108.36 56.9699L1129.52 84.3399L1134.27 80.6701ZM1113.11 53.3059C1111.35 51.0181 1109.29 49.2601 1106.88 48.3163L1104.7 53.9037C1105.81 54.3399 1107.05 55.2653 1108.36 56.9641L1113.11 53.3059ZM1106.99 48.3588C1104.65 47.3431 1101.51 46.96 1097.85 46.96V52.96C1101.26 52.96 1103.4 53.3435 1104.59 53.8612L1106.99 48.3588ZM1097.85 46.96H1086.93V52.96H1097.85V46.96ZM1083.93 49.96V81.47H1089.93V49.96H1083.93ZM1083.93 81.47C1083.93 81.6506 1083.91 81.6865 1083.93 81.6282C1083.95 81.5553 1084.02 81.4018 1084.18 81.2462C1084.33 81.0905 1084.48 81.0201 1084.56 80.9958C1084.62 80.9764 1084.58 81 1084.4 81V87C1085.71 87 1087.24 86.6715 1088.42 85.4888C1089.6 84.3061 1089.93 82.7758 1089.93 81.47H1083.93ZM1084.4 81H1071.98V87H1084.4V81ZM1071.98 81C1071.77 81 1071.7 80.9737 1071.73 80.9836C1071.78 80.9977 1071.92 81.054 1072.07 81.1996C1072.22 81.3479 1072.3 81.5025 1072.33 81.5896C1072.36 81.6609 1072.33 81.6388 1072.33 81.47H1066.33C1066.33 82.8106 1066.69 84.3586 1067.92 85.5354C1069.13 86.6885 1070.67 87 1071.98 87V81ZM1072.33 81.47V6.03H1066.33V81.47H1072.33ZM1072.33 6.03C1072.33 5.8612 1072.36 5.83912 1072.33 5.91035C1072.3 5.99749 1072.22 6.15206 1072.07 6.30042C1071.92 6.44604 1071.78 6.50228 1071.73 6.51635C1071.7 6.5263 1071.77 6.49999 1071.98 6.49999V0.499994C1070.67 0.499994 1069.13 0.811516 1067.92 1.96457C1066.69 3.14145 1066.33 4.68941 1066.33 6.03H1072.33ZM1071.98 6.49999H1084.4V0.499994H1071.98V6.49999ZM1188.58 36.275H1185.58V39.275H1188.58V36.275ZM1188.58 50.42V47.42H1185.58V50.42H1188.58ZM1172.82 82.735L1170.88 85.0252L1170.92 85.0603L1170.97 85.094L1172.82 82.735ZM1172.82 5.10999L1170.7 2.98867L1170.66 3.02794L1170.62 3.06864L1172.82 5.10999ZM1254.13 6.49999C1254.31 6.49999 1254.34 6.52361 1254.28 6.50417C1254.21 6.47988 1254.06 6.40947 1253.9 6.25381C1253.75 6.09816 1253.68 5.94467 1253.65 5.8718C1253.63 5.81347 1253.66 5.84938 1253.66 6.03H1259.66C1259.66 4.72423 1259.33 3.19388 1258.14 2.01118C1256.96 0.828468 1255.43 0.499994 1254.13 0.499994V6.49999ZM1253.66 6.03V16.955H1259.66V6.03H1253.66ZM1253.66 16.955C1253.66 17.1356 1253.63 17.1715 1253.65 17.1132C1253.68 17.0403 1253.75 16.8868 1253.9 16.7312C1254.06 16.5755 1254.21 16.5051 1254.28 16.4808C1254.34 16.4614 1254.31 16.485 1254.13 16.485V22.485C1255.43 22.485 1256.96 22.1565 1258.14 20.9738C1259.33 19.7911 1259.66 18.2608 1259.66 16.955H1253.66ZM1254.13 16.485H1190.07V22.485H1254.13V16.485ZM1190.07 16.485C1189.05 16.485 1187.75 16.7701 1186.75 17.8461C1185.79 18.8803 1185.58 20.1488 1185.58 21.095H1191.58C1191.58 20.9678 1191.61 21.4314 1191.15 21.9288C1190.65 22.4683 1190.09 22.485 1190.07 22.485V16.485ZM1185.58 21.095V36.275H1191.58V21.095H1185.58ZM1188.58 39.275H1253.44V33.275H1188.58V39.275ZM1253.44 39.275C1253.65 39.275 1253.71 39.3013 1253.68 39.2914C1253.64 39.2773 1253.5 39.221 1253.35 39.0754C1253.19 38.9271 1253.11 38.7725 1253.08 38.6853C1253.06 38.6141 1253.08 38.6362 1253.08 38.805H1259.08C1259.08 37.4644 1258.72 35.9165 1257.49 34.7396C1256.29 33.5865 1254.75 33.275 1253.44 33.275V39.275ZM1253.08 38.805V47.89H1259.08V38.805H1253.08ZM1253.08 47.89C1253.08 48.0588 1253.06 48.0809 1253.08 48.0096C1253.11 47.9225 1253.19 47.7679 1253.35 47.6196C1253.5 47.4739 1253.64 47.4177 1253.68 47.4036C1253.71 47.3937 1253.65 47.42 1253.44 47.42V53.42C1254.75 53.42 1256.29 53.1085 1257.49 51.9554C1258.72 50.7785 1259.08 49.2306 1259.08 47.89H1253.08ZM1253.44 47.42H1188.58V53.42H1253.44V47.42ZM1185.58 50.42V66.29H1191.58V50.42H1185.58ZM1185.58 66.29C1185.58 67.2305 1185.77 68.4961 1186.68 69.5485C1187.67 70.6831 1188.99 71.015 1190.07 71.015V65.015C1190.15 65.015 1190.73 65.0594 1191.22 65.619C1191.63 66.0964 1191.58 66.4995 1191.58 66.29H1185.58ZM1190.07 71.015H1254.13V65.015H1190.07V71.015ZM1254.13 71.015C1254.31 71.015 1254.34 71.0386 1254.28 71.0192C1254.21 70.9949 1254.06 70.9245 1253.9 70.7688C1253.75 70.6132 1253.68 70.4597 1253.65 70.3868C1253.63 70.3285 1253.66 70.3644 1253.66 70.545H1259.66C1259.66 69.2392 1259.33 67.7089 1258.14 66.5262C1256.96 65.3435 1255.43 65.015 1254.13 65.015V71.015ZM1253.66 70.545V81.47H1259.66V70.545H1253.66ZM1253.66 81.47C1253.66 81.6506 1253.63 81.6865 1253.65 81.6282C1253.68 81.5553 1253.75 81.4018 1253.9 81.2462C1254.06 81.0905 1254.21 81.0201 1254.28 80.9958C1254.34 80.9764 1254.31 81 1254.13 81V87C1255.43 87 1256.96 86.6715 1258.14 85.4888C1259.33 84.3061 1259.66 82.7758 1259.66 81.47H1253.66ZM1254.13 81H1177.77V87H1254.13V81ZM1177.77 81C1175.82 81 1174.98 80.6142 1174.67 80.376L1170.97 85.094C1172.81 86.5424 1175.26 87 1177.77 87V81ZM1174.76 80.4448C1174.75 80.4398 1174.73 80.4196 1174.69 80.3643C1174.66 80.3064 1174.6 80.2027 1174.54 80.0326C1174.43 79.6793 1174.33 79.1094 1174.33 78.25H1168.33C1168.33 80.7239 1168.88 83.3308 1170.88 85.0252L1174.76 80.4448ZM1174.33 78.25V9.25H1168.33V78.25H1174.33ZM1174.33 9.25C1174.33 8.19757 1174.62 7.58579 1175.02 7.15135L1170.62 3.06864C1169.03 4.78087 1168.33 6.92908 1168.33 9.25H1174.33ZM1174.94 7.23132C1175.24 6.93653 1175.97 6.49999 1177.77 6.49999V0.499994C1175.11 0.499994 1172.55 1.1368 1170.7 2.98867L1174.94 7.23132ZM1177.77 6.49999H1254.13V0.499994H1177.77V6.49999ZM1331.8 19.945V16.945H1328.8V19.945H1331.8ZM1314.2 19.945H1317.2V16.945H1314.2V19.945ZM1367.91 6.49999C1368.12 6.49999 1368.18 6.5263 1368.15 6.51635C1368.11 6.50228 1367.97 6.44604 1367.82 6.30042C1367.66 6.15206 1367.58 5.99749 1367.55 5.91035C1367.53 5.83912 1367.55 5.8612 1367.55 6.03H1373.55C1373.55 4.68941 1373.19 3.14145 1371.96 1.96457C1370.76 0.811516 1369.22 0.499994 1367.91 0.499994V6.49999ZM1367.55 6.03V17.3H1373.55V6.03H1367.55ZM1367.55 17.3C1367.55 17.4998 1367.53 17.5525 1367.54 17.5085C1367.56 17.45 1367.62 17.3085 1367.77 17.1624C1367.91 17.0164 1368.06 16.9531 1368.11 16.9336C1368.16 16.919 1368.11 16.945 1367.91 16.945V22.945C1369.25 22.945 1370.81 22.6069 1372.01 21.4051C1373.21 20.2032 1373.55 18.6441 1373.55 17.3H1367.55ZM1367.91 16.945H1331.8V22.945H1367.91V16.945ZM1328.8 19.945V81.47H1334.8V19.945H1328.8ZM1328.8 81.47C1328.8 81.6506 1328.77 81.6865 1328.79 81.6282C1328.82 81.5553 1328.89 81.4018 1329.04 81.2462C1329.2 81.0905 1329.35 81.0201 1329.42 80.9958C1329.48 80.9764 1329.45 81 1329.27 81V87C1330.57 87 1332.1 86.6715 1333.28 85.4888C1334.47 84.3061 1334.8 82.7758 1334.8 81.47H1328.8ZM1329.27 81H1316.73V87H1329.27V81ZM1316.73 81C1316.55 81 1316.51 80.9764 1316.57 80.9958C1316.65 81.0201 1316.8 81.0905 1316.95 81.2462C1317.11 81.4018 1317.18 81.5553 1317.21 81.6282C1317.22 81.6865 1317.2 81.6506 1317.2 81.47H1311.2C1311.2 82.7758 1311.53 84.3061 1312.71 85.4888C1313.89 86.6715 1315.43 87 1316.73 87V81ZM1317.2 81.47V19.945H1311.2V81.47H1317.2ZM1314.2 16.945H1278.09V22.945H1314.2V16.945ZM1278.09 16.945C1277.89 16.945 1277.84 16.919 1277.88 16.9336C1277.94 16.9531 1278.08 17.0164 1278.23 17.1624C1278.37 17.3085 1278.44 17.45 1278.46 17.5085C1278.47 17.5525 1278.45 17.4998 1278.45 17.3H1272.45C1272.45 18.6441 1272.78 20.2032 1273.99 21.4051C1275.19 22.6069 1276.75 22.945 1278.09 22.945V16.945ZM1278.45 17.3V6.03H1272.45V17.3H1278.45ZM1278.45 6.03C1278.45 5.8612 1278.47 5.83912 1278.44 5.91035C1278.41 5.99749 1278.34 6.15206 1278.18 6.30042C1278.03 6.44604 1277.89 6.50228 1277.85 6.51635C1277.81 6.5263 1277.88 6.49999 1278.09 6.49999V0.499994C1276.78 0.499994 1275.24 0.811516 1274.03 1.96457C1272.8 3.14145 1272.45 4.68941 1272.45 6.03H1278.45ZM1278.09 6.49999H1367.91V0.499994H1278.09V6.49999ZM1412.3 66.405L1409.73 64.8515L1409.72 64.8838L1409.7 64.9166L1412.3 66.405ZM1446.34 10.17L1448.91 11.7235L1448.94 11.6757L1448.96 11.6269L1446.34 10.17ZM1448.53 6.835L1446.31 4.81698L1446.25 4.87481L1446.2 4.93529L1448.53 6.835ZM1451.06 4.88L1452.4 7.56328L1452.44 7.54296L1452.48 7.52141L1451.06 4.88ZM1454.51 3.845L1454.86 6.82445L1454.93 6.81603L1455 6.80418L1454.51 3.845ZM1477.62 6.03L1475.5 8.15131L1475.52 8.17598L1475.55 8.20006L1477.62 6.03ZM1459.11 21.095L1461.66 22.6623L1461.78 22.4768L1461.86 22.2768L1459.11 21.095ZM1424.72 77.215L1422.16 75.6477L1422.16 75.6507L1424.72 77.215ZM1422.31 80.55L1420.09 78.532L1420.03 78.5898L1419.98 78.6503L1422.31 80.55ZM1419.89 82.62L1421.4 85.2113L1419.89 82.62ZM1416.56 83.77L1416.91 86.7495L1416.99 86.7394L1417.08 86.7243L1416.56 83.77ZM1393.67 81.585L1391.55 83.7063L1391.6 83.7545L1391.65 83.8005L1393.67 81.585ZM1406.21 6.49999C1406.39 6.49999 1406.42 6.52361 1406.36 6.50417C1406.29 6.47988 1406.14 6.40947 1405.98 6.25381C1405.83 6.09816 1405.76 5.94467 1405.73 5.8718C1405.71 5.81347 1405.74 5.84938 1405.74 6.03H1411.74C1411.74 4.72423 1411.41 3.19388 1410.23 2.01118C1409.04 0.828468 1407.51 0.499994 1406.21 0.499994V6.49999ZM1405.74 6.03V66.06H1411.74V6.03H1405.74ZM1405.74 66.06C1405.74 66.7639 1405.86 67.8469 1406.62 68.7966C1407.49 69.8741 1408.69 70.21 1409.66 70.21V64.21C1410.01 64.21 1410.75 64.3542 1411.31 65.0484C1411.54 65.3384 1411.65 65.6157 1411.69 65.7901C1411.72 65.8776 1411.73 65.9459 1411.73 65.9889C1411.74 66.0321 1411.74 66.0569 1411.74 66.06H1405.74ZM1409.66 70.21H1410.69V64.21H1409.66V70.21ZM1410.69 70.21C1412.23 70.21 1413.93 69.6009 1414.91 67.8934L1409.7 64.9166C1409.83 64.6871 1410.05 64.4645 1410.33 64.3255C1410.57 64.2017 1410.73 64.21 1410.69 64.21V70.21ZM1414.87 67.9585L1448.91 11.7235L1443.77 8.61649L1409.73 64.8515L1414.87 67.9585ZM1448.96 11.6269C1449.68 10.3403 1450.31 9.39336 1450.85 8.73471L1446.2 4.93529C1445.36 5.9633 1444.54 7.2397 1443.72 8.71306L1448.96 11.6269ZM1450.75 8.85302C1451.29 8.25418 1451.84 7.84066 1452.4 7.56328L1449.71 2.19672C1448.43 2.83933 1447.3 3.72915 1446.31 4.81698L1450.75 8.85302ZM1452.48 7.52141C1453.09 7.19009 1453.87 6.94056 1454.86 6.82445L1454.16 0.865545C1452.54 1.0561 1451.01 1.49657 1449.63 2.23859L1452.48 7.52141ZM1455 6.80418C1456.16 6.61088 1457.71 6.49999 1459.68 6.49999V0.499994C1457.52 0.499994 1455.61 0.619108 1454.01 0.885817L1455 6.80418ZM1459.68 6.49999H1469.8V0.499994H1459.68V6.49999ZM1469.8 6.49999C1472.91 6.49999 1474.6 7.24778 1475.5 8.15131L1479.74 3.90868C1477.27 1.43888 1473.75 0.499994 1469.8 0.499994V6.49999ZM1475.55 8.20006C1476.27 8.88908 1477.15 10.8839 1477.15 15.46H1483.15C1483.15 10.6827 1482.34 6.39091 1479.69 3.85993L1475.55 8.20006ZM1477.15 15.46V81.47H1483.15V15.46H1477.15ZM1477.15 81.47C1477.15 81.6388 1477.13 81.6609 1477.15 81.5896C1477.18 81.5025 1477.26 81.3479 1477.42 81.1996C1477.57 81.054 1477.71 80.9977 1477.75 80.9836C1477.78 80.9737 1477.72 81 1477.51 81V87C1478.82 87 1480.36 86.6885 1481.56 85.5354C1482.79 84.3586 1483.15 82.8106 1483.15 81.47H1477.15ZM1477.51 81H1465.09V87H1477.51V81ZM1465.09 81C1464.91 81 1464.87 80.9764 1464.93 80.9958C1465 81.0201 1465.15 81.0905 1465.31 81.2462C1465.47 81.4018 1465.54 81.5553 1465.56 81.6282C1465.58 81.6865 1465.56 81.6506 1465.56 81.47H1459.56C1459.56 82.7758 1459.88 84.3061 1461.07 85.4888C1462.25 86.6715 1463.78 87 1465.09 87V81ZM1465.56 81.47V21.44H1459.56V81.47H1465.56ZM1465.56 21.44C1465.56 20.7361 1465.43 19.6531 1464.67 18.7034C1463.81 17.6259 1462.61 17.29 1461.64 17.29V23.29C1461.28 23.29 1460.54 23.1458 1459.98 22.4516C1459.75 22.1616 1459.65 21.8843 1459.6 21.7099C1459.58 21.6224 1459.57 21.5541 1459.56 21.5111C1459.56 21.4679 1459.56 21.4431 1459.56 21.44H1465.56ZM1461.64 17.29H1460.6V23.29H1461.64V17.29ZM1460.6 17.29C1459.89 17.29 1459.04 17.4117 1458.23 17.8498C1457.36 18.3164 1456.72 19.0427 1456.35 19.9132L1461.86 22.2768C1461.72 22.6106 1461.44 22.9344 1461.07 23.1327C1460.76 23.3025 1460.55 23.29 1460.6 23.29V17.29ZM1456.55 19.5277L1422.16 75.6477L1427.28 78.7823L1461.66 22.6623L1456.55 19.5277ZM1422.16 75.6507C1421.38 76.9303 1420.69 77.8734 1420.09 78.532L1424.53 82.568C1425.46 81.5399 1426.38 80.2597 1427.28 78.7794L1422.16 75.6507ZM1419.98 78.6503C1419.52 79.2231 1418.98 79.6765 1418.38 80.0287L1421.4 85.2113C1422.64 84.4901 1423.72 83.5636 1424.63 82.4497L1419.98 78.6503ZM1418.38 80.0287C1417.83 80.3494 1417.07 80.6329 1416.04 80.8157L1417.08 86.7243C1418.65 86.4472 1420.11 85.9639 1421.4 85.2113L1418.38 80.0287ZM1416.21 80.7906C1415.07 80.9247 1413.51 81 1411.5 81V87C1413.62 87 1415.44 86.9219 1416.91 86.7495L1416.21 80.7906ZM1411.5 81H1401.61V87H1411.5V81ZM1401.61 81C1398.48 81 1396.69 80.2801 1395.69 79.3695L1391.65 83.8005C1394.18 86.1099 1397.68 87 1401.61 87V81ZM1395.79 79.4637C1395.01 78.6815 1394.14 76.5909 1394.14 72.04H1388.14C1388.14 76.8425 1388.96 81.1151 1391.55 83.7063L1395.79 79.4637ZM1394.14 72.04V6.03H1388.14V72.04H1394.14ZM1394.14 6.03C1394.14 5.8612 1394.16 5.83912 1394.14 5.91035C1394.11 5.99749 1394.03 6.15206 1393.88 6.30042C1393.72 6.44604 1393.58 6.50228 1393.54 6.51635C1393.51 6.5263 1393.58 6.49999 1393.79 6.49999V0.499994C1392.47 0.499994 1390.93 0.811516 1389.73 1.96457C1388.5 3.14145 1388.14 4.68941 1388.14 6.03H1394.14ZM1393.79 6.49999H1406.21V0.499994H1393.79V6.49999ZM1523.31 35.93H1520.31V38.93H1523.31V35.93ZM1577.13 35.93V38.93H1580.13V35.93H1577.13ZM1577.13 50.88H1580.13V47.88H1577.13V50.88ZM1523.31 50.88V47.88H1520.31V50.88H1523.31ZM1520.78 6.49999C1520.96 6.49999 1520.99 6.52361 1520.93 6.50417C1520.86 6.47988 1520.71 6.40947 1520.55 6.25381C1520.4 6.09816 1520.33 5.94467 1520.3 5.8718C1520.28 5.81347 1520.31 5.84938 1520.31 6.03H1526.31C1526.31 4.72423 1525.98 3.19388 1524.79 2.01118C1523.61 0.828468 1522.08 0.499994 1520.78 0.499994V6.49999ZM1520.31 6.03V35.93H1526.31V6.03H1520.31ZM1523.31 38.93H1577.13V32.93H1523.31V38.93ZM1580.13 35.93V6.03H1574.13V35.93H1580.13ZM1580.13 6.03C1580.13 5.84938 1580.15 5.81347 1580.13 5.8718C1580.1 5.94467 1580.03 6.09816 1579.88 6.25381C1579.72 6.40947 1579.57 6.47988 1579.5 6.50417C1579.44 6.52361 1579.47 6.49999 1579.66 6.49999V0.499994C1578.35 0.499994 1576.82 0.828468 1575.64 2.01118C1574.45 3.19388 1574.13 4.72423 1574.13 6.03H1580.13ZM1579.66 6.49999H1592.08V0.499994H1579.66V6.49999ZM1592.08 6.49999C1592.29 6.49999 1592.35 6.5263 1592.32 6.51635C1592.28 6.50228 1592.14 6.44604 1591.99 6.30042C1591.83 6.15206 1591.75 5.99749 1591.72 5.91035C1591.7 5.83912 1591.72 5.8612 1591.72 6.03H1597.72C1597.72 4.68941 1597.36 3.14145 1596.13 1.96457C1594.93 0.811516 1593.39 0.499994 1592.08 0.499994V6.49999ZM1591.72 6.03V81.47H1597.72V6.03H1591.72ZM1591.72 81.47C1591.72 81.6388 1591.7 81.6609 1591.72 81.5896C1591.75 81.5025 1591.83 81.3479 1591.99 81.1996C1592.14 81.054 1592.28 80.9977 1592.32 80.9836C1592.35 80.9737 1592.29 81 1592.08 81V87C1593.39 87 1594.93 86.6885 1596.13 85.5354C1597.36 84.3586 1597.72 82.8106 1597.72 81.47H1591.72ZM1592.08 81H1579.66V87H1592.08V81ZM1579.66 81C1579.47 81 1579.44 80.9764 1579.5 80.9958C1579.57 81.0201 1579.72 81.0905 1579.88 81.2462C1580.03 81.4018 1580.1 81.5553 1580.13 81.6282C1580.15 81.6865 1580.13 81.6506 1580.13 81.47H1574.13C1574.13 82.7758 1574.45 84.3061 1575.64 85.4888C1576.82 86.6715 1578.35 87 1579.66 87V81ZM1580.13 81.47V50.88H1574.13V81.47H1580.13ZM1577.13 47.88H1523.31V53.88H1577.13V47.88ZM1520.31 50.88V81.47H1526.31V50.88H1520.31ZM1520.31 81.47C1520.31 81.6506 1520.28 81.6865 1520.3 81.6282C1520.33 81.5553 1520.4 81.4018 1520.55 81.2462C1520.71 81.0905 1520.86 81.0201 1520.93 80.9958C1520.99 80.9764 1520.96 81 1520.78 81V87C1522.08 87 1523.61 86.6715 1524.79 85.4888C1525.98 84.3061 1526.31 82.7758 1526.31 81.47H1520.31ZM1520.78 81H1508.36V87H1520.78V81ZM1508.36 81C1508.14 81 1508.08 80.9737 1508.11 80.9836C1508.15 80.9977 1508.29 81.054 1508.45 81.1996C1508.6 81.3479 1508.68 81.5025 1508.71 81.5896C1508.73 81.6609 1508.71 81.6388 1508.71 81.47H1502.71C1502.71 82.8106 1503.07 84.3586 1504.3 85.5354C1505.5 86.6885 1507.04 87 1508.36 87V81ZM1508.71 81.47V6.03H1502.71V81.47H1508.71ZM1508.71 6.03C1508.71 5.8612 1508.73 5.83912 1508.71 5.91035C1508.68 5.99749 1508.6 6.15206 1508.45 6.30042C1508.29 6.44604 1508.15 6.50228 1508.11 6.51635C1508.08 6.5263 1508.14 6.49999 1508.36 6.49999V0.499994C1507.04 0.499994 1505.5 0.811516 1504.3 1.96457C1503.07 3.14145 1502.71 4.68941 1502.71 6.03H1508.71ZM1508.36 6.49999H1520.78V0.499994H1508.36V6.49999ZM1645.46 20.75L1646.16 23.6672L1646.2 23.6576L1646.24 23.6468L1645.46 20.75ZM1640.86 23.28L1642.99 25.4013L1643.02 25.3671L1643.05 25.3318L1640.86 23.28ZM1638.33 27.995L1635.44 27.2151L1635.42 27.2675L1635.41 27.3204L1638.33 27.995ZM1621.77 19.83L1618.92 18.9157L1618.91 18.9417L1618.9 18.968L1621.77 19.83ZM1627.41 10.515L1629.46 12.7015L1629.46 12.6996L1627.41 10.515ZM1637.41 5.22499L1638.18 8.12551L1638.21 8.11878L1638.23 8.11161L1637.41 5.22499ZM1699.51 6.49999C1699.69 6.49999 1699.73 6.52361 1699.67 6.50417C1699.6 6.47988 1699.45 6.40947 1699.29 6.25381C1699.13 6.09816 1699.06 5.94467 1699.04 5.8718C1699.02 5.81347 1699.04 5.84938 1699.04 6.03H1705.04C1705.04 4.72423 1704.72 3.19388 1703.53 2.01118C1702.35 0.82847 1700.82 0.499994 1699.51 0.499994V6.49999ZM1699.04 6.03V17.3H1705.04V6.03H1699.04ZM1699.04 17.3C1699.04 17.511 1699.02 17.5771 1699.03 17.5459C1699.04 17.5017 1699.1 17.3623 1699.24 17.2101C1699.39 17.055 1699.55 16.9771 1699.63 16.9468C1699.7 16.922 1699.68 16.945 1699.51 16.945V22.945C1700.85 22.945 1702.4 22.5878 1703.58 21.3574C1704.73 20.1519 1705.04 18.6116 1705.04 17.3H1699.04ZM1699.51 16.945H1652.94V22.945H1699.51V16.945ZM1652.94 16.945C1649.79 16.945 1647.02 17.2249 1644.68 17.8532L1646.24 23.6468C1647.9 23.2017 1650.11 22.945 1652.94 22.945V16.945ZM1644.76 17.8328C1642.38 18.4056 1640.29 19.5043 1638.68 21.2282L1643.05 25.3318C1643.74 24.6023 1644.72 24.0144 1646.16 23.6672L1644.76 17.8328ZM1638.74 21.1587C1637.13 22.7675 1636.07 24.8487 1635.44 27.2151L1641.23 28.7749C1641.67 27.1546 1642.29 26.0925 1642.99 25.4013L1638.74 21.1587ZM1635.41 27.3204C1634.88 29.6153 1634.64 32.392 1634.64 35.585H1640.64C1640.64 32.6447 1640.87 30.3614 1641.26 28.6696L1635.41 27.3204ZM1634.64 35.585V81.47H1640.64V35.585H1634.64ZM1634.64 81.47C1634.64 81.6506 1634.62 81.6865 1634.64 81.6282C1634.66 81.5553 1634.73 81.4018 1634.89 81.2462C1635.05 81.0905 1635.2 81.0201 1635.27 80.9958C1635.33 80.9764 1635.29 81 1635.11 81V87C1636.42 87 1637.95 86.6715 1639.13 85.4888C1640.32 84.3061 1640.64 82.7758 1640.64 81.47H1634.64ZM1635.11 81H1622.69V87H1635.11V81ZM1622.69 81C1622.48 81 1622.42 80.9737 1622.45 80.9836C1622.49 80.9977 1622.63 81.054 1622.78 81.1996C1622.94 81.3479 1623.02 81.5025 1623.05 81.5896C1623.07 81.6609 1623.05 81.6388 1623.05 81.47H1617.05C1617.05 82.8106 1617.41 84.3586 1618.64 85.5354C1619.84 86.6885 1621.38 87 1622.69 87V81ZM1623.05 81.47V33.86H1617.05V81.47H1623.05ZM1623.05 33.86C1623.05 28.5299 1623.61 24.1624 1624.65 20.692L1618.9 18.968C1617.64 23.1643 1617.05 28.1501 1617.05 33.86H1623.05ZM1624.63 20.7443C1625.73 17.3184 1627.36 14.6771 1629.46 12.7015L1625.35 8.32845C1622.4 11.1062 1620.27 14.675 1618.92 18.9157L1624.63 20.7443ZM1629.46 12.6996C1631.65 10.6437 1634.52 9.09355 1638.18 8.12551L1636.65 2.32448C1632.19 3.50311 1628.38 5.47964 1625.35 8.33039L1629.46 12.6996ZM1638.23 8.11161C1641.95 7.05925 1646.6 6.49999 1652.25 6.49999V0.499994C1646.24 0.499994 1641.01 1.09074 1636.6 2.33838L1638.23 8.11161ZM1652.25 6.49999H1699.51V0.499994H1652.25V6.49999Z" fill="#2EC878" mask="url(#path-1-outside-1_3969_19365)"/>
</svg>
