<svg width="274" height="120" viewBox="0 0 274 120" fill="none" xmlns="http://www.w3.org/2000/svg">
<path d="M48.724 98.3872H41.0526V43.3763H7.79387V98.3872H0V36.3164H48.724V98.3872Z" fill="#020403"/>
<path d="M66.9464 43.9406C72.0933 38.1776 79.0661 35.29 87.8893 35.29C96.7126 35.29 103.685 38.1776 108.832 43.9406C113.979 49.7035 116.54 57.522 116.54 67.3838C116.54 77.2456 113.967 85.0519 108.832 90.8026C103.685 96.5533 96.7126 99.4286 87.8893 99.4286C79.0661 99.4286 72.0933 96.5533 66.9464 90.8026C61.7995 85.0519 59.2383 77.2456 59.2383 67.3838C59.2383 57.522 61.8117 49.7035 66.9464 43.9406ZM102.987 49.1651C99.2615 44.6747 94.2372 42.4356 87.8893 42.4356C81.5415 42.4356 76.5049 44.6747 72.7918 49.1651C69.0664 53.6556 67.216 59.7244 67.216 67.3838C67.216 75.0432 69.0787 81.0753 72.7918 85.5535C76.5172 90.044 81.5415 92.2831 87.8893 92.2831C94.2372 92.2831 99.2738 90.044 102.987 85.5535C106.712 81.0631 108.563 75.0065 108.563 67.3838C108.563 59.7611 106.7 53.6556 102.987 49.1651Z" fill="#020403"/>
<path d="M165.302 98.3872L147.68 46.166H147.423L129.801 98.3872H121.664L143.722 36.3164H151.394L173.452 98.3872H165.315H165.302Z" fill="#020403"/>
<path d="M219.504 91.4263V98.4005H180.988V36.3175H219.504V43.2917H188.745V63.2112H217.911V70.0998H188.745V91.4385H219.504V91.4263ZM204.125 31.2887H197.495L206.968 18.8574H215.325L204.125 31.2887Z" fill="#020403"/>
<path d="M254.06 98.3872H246.303V43.2906H226.695V36.3164H273.655V43.2906H254.047V98.3994L254.06 98.3872Z" fill="#020403"/>
</svg>
