<svg xmlns="http://www.w3.org/2000/svg" width="324" height="120" fill="none"><path fill="#020403" d="M321.517 83.432c.114-.133.342-.2.704-.219l1.218-.047V81.88h-7.879v1.284l.923.048c.361.02.609.095.713.219.105.133.162.362.162.695v2.93h-4.415v-2.93c0-.333.057-.562.162-.695.114-.124.342-.2.694-.219l.942-.047V81.88h-7.85v1.284l1.218.048c.352.02.59.086.694.219.115.124.162.352.162.695v7.698c0 .343-.057.59-.171.723-.124.143-.362.22-.704.238l-1.199.02v1.284h7.85v-1.285l-.923-.019c-.352-.019-.58-.095-.694-.238-.115-.133-.181-.38-.181-.723v-3.33h4.415v3.33c0 .343-.057.59-.181.723-.114.143-.342.22-.704.238l-.913.02v1.284h7.879v-1.285l-1.209-.019c-.342-.019-.58-.095-.694-.228-.115-.134-.181-.38-.181-.733v-7.698c0-.343.057-.571.162-.695M303.636 83.328c-1.323-1.218-3.008-1.827-5.072-1.827s-3.759.6-5.063 1.817c-1.313 1.219-1.97 2.78-1.97 4.701 0 1.923.647 3.474 1.942 4.682 1.303 1.2 2.997 1.799 5.091 1.799 2.093 0 3.758-.6 5.081-1.808 1.313-1.209 1.97-2.77 1.97-4.673s-.657-3.463-1.979-4.691m-3.103 8.479c-.418.79-1.084 1.18-1.988 1.18s-1.552-.4-1.961-1.2c-.409-.79-.618-2.045-.618-3.768s.209-3.016.618-3.815c.419-.8 1.076-1.19 1.98-1.19s1.551.39 1.969 1.19c.41.799.619 2.065.619 3.815s-.209 2.998-.619 3.788M288.36 83.422c.105-.123.343-.19.695-.209l1.218-.047V81.88h-7.87v1.284l.923.048c.353.01.59.076.705.21.104.123.161.361.161.704v.409l-4.406 4.824v-5.233c0-.333.048-.562.162-.695.105-.124.343-.2.695-.219l.932-.047V81.88h-7.841v1.284l1.209.048c.361.02.599.086.704.21.105.133.162.361.162.704v7.698c0 .343-.057.59-.181.723-.124.143-.352.22-.695.238l-1.199.02v1.284h7.841v-1.285l-.923-.019c-.361-.019-.599-.095-.704-.247-.114-.133-.162-.438-.162-.895v-.457l4.406-4.739v5.377c0 .343-.057.59-.171.723q-.171.213-.714.238l-.904.02v1.284h7.87v-1.285l-1.199-.019c-.352-.019-.59-.095-.704-.228q-.171-.202-.171-.733v-7.698c0-.343.057-.571.161-.705M286.135 76.057q-.4-.456-.971-.456c-.38 0-.694.142-.97.418a1.35 1.35 0 0 0-.409.99c0 .323.066.57.199.761.134.2.353.352.638.467a2.4 2.4 0 0 1-1.056.704c-.428.142-.952.218-1.58.218s-1.123-.076-1.551-.228a2.4 2.4 0 0 1-1.056-.694c.295-.096.504-.248.637-.438.134-.2.2-.457.2-.79 0-.38-.133-.714-.4-.99a1.33 1.33 0 0 0-.97-.418c-.4 0-.733.152-.99.456-.276.305-.409.676-.409 1.133 0 .847.438 1.57 1.294 2.16.857.6 1.941.894 3.245.894s2.398-.295 3.255-.894c.856-.59 1.284-1.313 1.284-2.16 0-.457-.123-.828-.39-1.133M273.232 92.11c-.057-.066-.133-.094-.238-.094-.066 0-.19.038-.371.133a1.2 1.2 0 0 1-.504.133c-.324 0-.562-.086-.704-.257-.153-.162-.219-.438-.219-.8V85.65c0-.856-.086-1.475-.248-1.874-.162-.39-.447-.752-.856-1.066-.524-.419-1.18-.733-1.98-.942-.799-.219-1.731-.324-2.797-.324-1.827 0-3.264.295-4.301.876-1.047.58-1.571 1.37-1.571 2.379q0 .9.6 1.456c.39.361.913.552 1.561.552.599 0 1.103-.153 1.475-.448q.57-.442.57-1.17c0-.371-.104-.685-.333-.952-.218-.276-.333-.447-.333-.523 0-.228.191-.438.562-.618.371-.181.828-.267 1.37-.267.828 0 1.428.19 1.789.562q.543.568.543 1.922V86.6c-2.95.39-5.101.98-6.443 1.76q-2.027 1.17-2.027 3.112c0 .97.343 1.722 1.019 2.255q1.027.8 2.854.8c.952 0 1.875-.162 2.779-.476.894-.324 1.684-.77 2.35-1.351.077.523.343.951.79 1.284.447.324.999.486 1.646.486.857 0 1.59-.21 2.199-.638.599-.428.904-.904.904-1.427 0-.134-.029-.229-.086-.295m-6.014-2.321c0 .818-.266 1.513-.78 2.065s-1.123.828-1.837.828c-.476 0-.856-.162-1.151-.476-.295-.305-.438-.723-.438-1.247 0-.856.314-1.522.952-1.989.637-.466 1.722-.827 3.254-1.094zM255.286 83.395q-1.57-1.77-3.911-1.77-1.399 0-2.456.514c-.694.342-1.303.875-1.798 1.599v-2.113l-6.033.276v1.266h.79q.887 0 1.132.2c.171.123.257.39.257.79v13.008q0 .513-.171.713-.171.198-.714.238l-1.066.057v1.256h8.26v-1.313h-1.437c-.333 0-.561-.067-.685-.21q-.188-.214-.19-.742v-4.282c.561.58 1.132 1 1.722 1.256.59.257 1.256.39 1.998.39 1.656 0 3.046-.627 4.178-1.893 1.132-1.256 1.694-2.836 1.694-4.73 0-1.893-.524-3.33-1.57-4.51m-3.474 8.212q-.642 1.2-1.855 1.2c-.895 0-1.58-.41-2.065-1.238-.486-.828-.723-1.998-.723-3.53s.237-2.627.704-3.407c.476-.77 1.17-1.16 2.084-1.16.828 0 1.446.39 1.865 1.17s.628 1.95.628 3.501c0 1.552-.219 2.665-.638 3.464M238.468 83.328c-1.314-1.218-3.007-1.827-5.063-1.827s-3.768.6-5.072 1.817c-1.313 1.219-1.97 2.78-1.97 4.701 0 1.923.657 3.474 1.951 4.682 1.294 1.2 2.998 1.799 5.091 1.799s3.759-.6 5.072-1.808 1.97-2.77 1.97-4.673-.657-3.463-1.979-4.691m-3.103 8.479c-.418.79-1.075 1.18-1.988 1.18-.914 0-1.552-.4-1.961-1.2-.409-.79-.609-2.045-.609-3.768s.2-3.016.619-3.815c.409-.8 1.066-1.19 1.979-1.19.914 0 1.542.39 1.96 1.19.41.799.619 2.065.619 3.815s-.209 2.998-.619 3.788M224.282 91.293v.152c0 .457-.067.8-.181 1.037-.114.238-.295.353-.524.353-.371 0-.656-.457-.856-1.361-.209-.904-.4-1.56-.571-1.96-.285-.62-.676-1.076-1.151-1.37-.486-.305-1.18-.505-2.084-.59.437-.2.77-.496 1.008-.914.238-.42.438-1.152.609-2.199.115-.723.238-1.19.362-1.389s.314-.295.561-.295c.096 0 .181.038.267.114.095.076.133.153.133.238 0 .029-.086.162-.266.39a1.17 1.17 0 0 0-.267.743c0 .4.133.704.409.923.276.218.657.333 1.152.333.533 0 .961-.153 1.265-.448.305-.304.457-.704.457-1.218q0-1.027-.742-1.684c-.495-.428-1.142-.647-1.951-.647-1.494 0-2.426 1.018-2.797 3.045-.039.18-.058.324-.077.41-.152.799-.39 1.35-.723 1.655-.323.304-.818.447-1.484.447h-.847v-2.93c0-.343.057-.572.162-.695.104-.134.342-.2.704-.22l1.208-.047v-1.284h-8.126v1.284l1.218.048c.352.019.59.085.694.219.105.123.162.352.162.694v7.708c0 .343-.057.58-.181.714-.123.143-.352.219-.694.238l-1.199.019v1.285h8.126v-1.285l-1.199-.02c-.361-.028-.59-.104-.704-.237q-.171-.186-.171-.714v-3.34h1.132c.847 0 1.39.838 1.608 2.493q.057.358.086.571c.162 1.085.504 1.856 1.009 2.294.514.447 1.303.675 2.35.675s1.846-.247 2.389-.742c.552-.504.818-1.218.818-2.17v-.323zM206.724 83.328c-1.284-1.218-2.902-1.827-4.872-1.827-.666 0-1.275.067-1.836.21-.562.133-1.142.37-1.742.675l-.342-.714h-.847l-.048 4.263h1.075c.276-.999.695-1.78 1.257-2.322.571-.542 1.227-.808 1.979-.808.904 0 1.599.342 2.093 1.046.495.695.771 1.723.838 3.074h-3.683v1.418h3.616c-.009 1.522-.314 2.683-.923 3.502-.609.818-1.484 1.218-2.607 1.218-.628 0-1.161-.105-1.599-.333q-.657-.33-.657-.771c0-.162.219-.362.667-.59.437-.228.656-.628.656-1.228 0-.428-.143-.77-.428-1.046-.295-.276-.666-.419-1.132-.419-.59 0-1.057.19-1.39.58-.342.39-.504.924-.504 1.6 0 1.103.466 1.988 1.399 2.645q1.398.999 3.74.999c2.264 0 4.034-.571 5.309-1.732s1.913-2.75 1.913-4.777c0-1.884-.647-3.435-1.932-4.663M84.597 60.224l2.503 1.199c-.923 3.083-2.522 5.367-4.768 6.88-2.255 1.504-5.224 2.255-8.926 2.255q-6.75 0-11.048-4.054c-2.864-2.712-4.282-6.223-4.282-10.553s1.456-7.603 4.368-10.286c2.912-2.684 6.67-4.016 11.267-4.016 4.206 0 7.498 1.227 9.877 3.692 2.38 2.455 3.569 5.862 3.569 10.23v.856H68v.562q0 4.75 1.999 7.289c1.322 1.684 3.225 2.531 5.69 2.531 2.008 0 3.73-.542 5.196-1.618 1.456-1.075 2.693-2.73 3.711-4.948zm-16.605-6.775h8.792c.59 0 1-.115 1.209-.352.219-.229.324-.771.324-1.628 0-2.407-.362-4.14-1.076-5.224q-1.07-1.639-3.425-1.637c-1.818 0-3.217.733-4.159 2.189-.961 1.465-1.513 3.683-1.665 6.652m34.999 23.038c0 .78.143 1.322.419 1.637.276.323.78.475 1.513.475h3.207v2.912H89.774v-2.798l2.379-.114c.8-.057 1.332-.228 1.58-.523.256-.305.38-.828.38-1.59V47.569c0-.895-.19-1.485-.561-1.77-.372-.286-1.209-.438-2.522-.438h-1.77v-2.817l13.408-.618v4.682c1.113-1.599 2.455-2.779 4.006-3.55q2.341-1.142 5.453-1.142c3.473 0 6.366 1.313 8.697 3.95 2.332 2.626 3.502 5.956 3.502 10.01s-1.256 7.727-3.768 10.534c-2.522 2.807-5.605 4.197-9.288 4.197-1.656 0-3.13-.286-4.434-.866-1.313-.58-2.589-1.504-3.826-2.788v9.525zm-.218-20.288c0 3.397.532 6.004 1.608 7.84 1.085 1.837 2.617 2.76 4.586 2.76 1.808 0 3.179-.894 4.121-2.674s1.418-4.348 1.418-7.707-.467-6.043-1.39-7.775c-.932-1.741-2.312-2.607-4.149-2.607-2.036 0-3.587.866-4.624 2.588-1.047 1.732-1.57 4.244-1.57 7.575m51.595 4.025 2.503 1.199c-.923 3.083-2.522 5.367-4.768 6.88-2.255 1.504-5.224 2.255-8.926 2.255q-6.752 0-11.048-4.054c-2.864-2.712-4.282-6.223-4.282-10.553s1.456-7.603 4.368-10.286c2.912-2.684 6.67-4.016 11.267-4.016 4.206 0 7.498 1.227 9.877 3.692 2.379 2.455 3.559 5.862 3.559 10.23v.856h-19.155v.562q0 4.75 1.998 7.289c1.323 1.684 3.226 2.531 5.69 2.531 2.008 0 3.731-.542 5.196-1.618 1.456-1.075 2.693-2.73 3.711-4.948zm-16.605-6.775h8.792c.59 0 1-.115 1.209-.352.219-.229.323-.771.323-1.628 0-2.407-.361-4.14-1.075-5.224q-1.07-1.639-3.426-1.637c-1.817 0-3.216.733-4.158 2.189-.961 1.465-1.513 3.683-1.665 6.652m50.957 7.05c-.875 3.293-2.445 5.787-4.7 7.49-2.265 1.713-5.12 2.57-8.574 2.57-4.397 0-8.003-1.333-10.829-3.988-2.827-2.664-4.225-6.061-4.225-10.201 0-4.453 1.484-8.022 4.434-10.705 2.959-2.684 6.88-4.016 11.752-4.016 3.416 0 6.195.723 8.346 2.16 2.16 1.437 3.235 3.274 3.235 5.49 0 1.618-.485 2.913-1.446 3.855q-1.457 1.438-3.911 1.436c-1.342 0-2.446-.418-3.322-1.265-.865-.847-1.303-1.884-1.303-3.121 0-1.152.314-2.103.942-2.874.637-.761.951-1.161.951-1.2 0-.427-.304-.799-.923-1.113-.618-.314-1.379-.475-2.293-.475-2.303 0-3.997.875-5.081 2.636-1.095 1.75-1.637 4.463-1.637 8.136s.637 6.613 1.922 8.535q1.927 2.884 5.71 2.884c1.95 0 3.597-.6 4.929-1.79 1.342-1.189 2.379-2.968 3.121-5.338zm22.582-4.662q-5.122.87-7.232 2.427c-1.418 1.046-2.122 2.521-2.122 4.425 0 1.16.323 2.084.98 2.778.647.695 1.503 1.047 2.56 1.047q2.369-.002 4.082-1.846c1.151-1.228 1.732-2.76 1.732-4.587v-4.244m8.84 7.242v.19c0 .818.162 1.418.485 1.79.324.37.857.56 1.58.56.352 0 .723-.104 1.123-.294q.6-.298.828-.296c.219 0 .399.077.533.22.123.152.19.361.19.647 0 1.17-.676 2.226-2.027 3.187-1.342.952-2.978 1.428-4.882 1.428-1.436 0-2.655-.362-3.654-1.095-1.008-.732-1.589-1.684-1.76-2.845-1.485 1.275-3.236 2.274-5.234 2.988a18.3 18.3 0 0 1-6.176 1.066c-2.712 0-4.815-.59-6.328-1.78s-2.274-2.864-2.274-5.005c0-2.883 1.503-5.186 4.491-6.918 2.998-1.741 7.775-3.045 14.322-3.902v-3.102c0-2.008-.4-3.435-1.199-4.263-.799-.837-2.132-1.256-3.978-1.256-1.208 0-2.227.2-3.045.6-.828.4-1.246.865-1.246 1.38q0 .253.742 1.15c.495.59.742 1.295.742 2.123 0 1.075-.419 1.941-1.266 2.607-.847.657-1.95.99-3.302.99-1.437 0-2.588-.41-3.473-1.228s-1.323-1.893-1.323-3.235c0-2.246 1.161-4.006 3.483-5.291 2.322-1.294 5.51-1.941 9.583-1.941 2.36 0 4.425.238 6.204.713q2.684.702 4.396 2.103c.914.705 1.552 1.494 1.913 2.38.362.884.543 2.264.543 4.158v12.19zm32.744-2.855 2.503 1.199c-.923 3.083-2.522 5.367-4.767 6.88-2.256 1.504-5.225 2.255-8.926 2.255q-6.752 0-11.048-4.054c-2.865-2.712-4.282-6.223-4.282-10.553s1.455-7.603 4.367-10.286c2.912-2.684 6.671-4.016 11.267-4.016 4.206 0 7.499 1.227 9.878 3.692 2.379 2.455 3.568 5.862 3.568 10.23v.856h-19.155v.562q0 4.75 1.998 7.289c1.323 1.684 3.226 2.531 5.69 2.531 2.008 0 3.731-.542 5.196-1.618 1.456-1.075 2.693-2.73 3.711-4.948zm-16.605-6.775h8.793c.59 0 .999-.115 1.208-.352.219-.229.324-.771.324-1.628 0-2.407-.362-4.14-1.075-5.224q-1.071-1.639-3.426-1.637c-1.818 0-3.217.733-4.159 2.189-.961 1.465-1.513 3.683-1.665 6.652m35.114.685q.528 0 1.113.057h.704c2.208 0 3.721-.352 4.511-1.047.799-.694 1.199-1.913 1.199-3.645q0-2.038-1.056-3.064c-.714-.694-1.761-1.037-3.16-1.037h-.361c-1.361 0-2.189.143-2.503.419-.304.276-.457.837-.457 1.675v6.632zm0 3.026v7.47c0 .818.152 1.37.457 1.665.314.305 1.189.447 2.636.447 2.007 0 3.425-.38 4.234-1.142q1.228-1.14 1.228-3.768c0-1.75-.438-2.883-1.323-3.644s-2.312-1.142-4.273-1.142c-.599 0-1.522.038-2.788.114zm5.709-14.655h1.647c2.674 0 4.796.58 6.394 1.742 1.59 1.16 2.389 2.74 2.389 4.72 0 1.874-.666 3.35-1.989 4.406-1.323 1.065-3.321 1.74-5.985 2.017 2.93.21 5.224.932 6.899 2.179 1.665 1.247 2.502 2.864 2.502 4.844 0 2.34-1.027 4.12-3.092 5.367q-3.086 1.867-8.926 1.865h-18.604V66.79l2.674-.057c.761-.038 1.275-.21 1.551-.514q.4-.456.4-1.599V47.492c0-.762-.124-1.285-.362-1.561-.238-.285-.761-.438-1.56-.476l-2.703-.114v-2.855h18.765zm15.216 13.637q0-6.395 4.368-10.449c2.912-2.702 6.661-4.044 11.267-4.044s8.336 1.36 11.257 4.073c2.941 2.721 4.397 6.185 4.397 10.42 0 4.234-1.466 7.717-4.377 10.4-2.931 2.684-6.681 4.016-11.277 4.016s-8.431-1.342-11.314-4.006c-2.884-2.674-4.321-6.138-4.321-10.41m9.868 0q0 5.738 1.371 8.393c.913 1.78 2.36 2.664 4.349 2.664 1.988 0 3.501-.875 4.415-2.636.923-1.75 1.38-4.558 1.38-8.421 0-3.864-.457-6.7-1.38-8.47-.923-1.779-2.379-2.664-4.358-2.664-1.98 0-3.483.885-4.397 2.664-.923 1.77-1.38 4.587-1.38 8.47M49.36 61.536c-.753 1.228-1.818 2.18-3.274 2.922-1.637.837-3.54 1.465-5.662 1.874 2.008-2.578 3.026-5.928 3.026-9.991 0-3.407-.79-6.31-2.341-8.66.447.114.904.248 1.351.39 1.694.533 3.169 1.218 4.377 2.037a9.1 9.1 0 0 1 2.703 2.883c.628 1.037.932 2.284.932 3.807 0 1.931-.38 3.52-1.122 4.738zm-4.664-36.56c2.046 1.266 2.96 2.95 2.96 5.462 0 1.152-.21 2.084-.628 2.874-.447.838-1.095 1.57-1.97 2.217-.952.724-2.103 1.342-3.445 1.875-.713.285-1.465.542-2.236.79q1.502-2.972 1.503-6.842c0-3.33-.866-6.128-2.588-8.327 3.34.467 5.282 1.247 6.395 1.942zm8.06 26.083a12.9 12.9 0 0 0-3.815-4.053c-1.514-1.028-3.303-1.866-5.349-2.513-2.055-.647-4.034-1.065-5.937-1.265v-.695a37 37 0 0 0 5.347-1.646c1.666-.657 3.093-1.447 4.292-2.35 1.323-.98 2.332-2.132 3.045-3.464.705-1.333 1.066-2.874 1.066-4.635 0-3.816-1.58-6.699-4.73-8.65-3.15-1.95-8.278-2.93-15.396-2.93H3.007v2.854a59 59 0 0 1 2.636.495c1 .21 1.884.466 2.636.79q1.542.656 1.941 1.541.4.885.4 2.199V37.07a25 25 0 0 1 3.949-.333c3.283 0 6.318.733 9.06 2.179V22.34q.81-.04 1.921-.095a37 37 0 0 1 1.818-.057c3.254 0 5.69.809 7.308 2.417 1.627 1.608 2.436 3.863 2.436 6.747q0 4.727-2.826 7.498c-1.485 1.456-3.626 2.341-6.414 2.646-2.76 1.104-11.01 3.873-22.048 2.636 7.375.085 13.503-2.018 16.557-3.302-2.378-1.218-4.995-1.837-7.831-1.837-1.922 0-3.94.276-6.052.837-3.721.98-6.814 2.608-8.498 3.607 1.694 1.009 4.825 2.655 8.555 3.626 2.093.542 4.092.818 5.995.818q5.141 0 9.268-2.655c.362-.01.857-.038 1.494-.066q1.157-.058 1.856-.058c4.035 0 7.127.971 9.278 2.903q3.225 2.897 3.226 8.336c0 3.625-.914 6.3-2.731 8.26q-2.729 2.94-7.099 2.94c-1.637 0-3.026-.314-4.177-.933-1.152-.628-1.837-1.389-2.056-2.293V47.948c-2.75 1.446-5.786 2.179-9.06 2.179-1.274 0-2.597-.114-3.948-.333v13.608c0 .951-.162 1.731-.495 2.33-.333.6-.952 1.086-1.856 1.447-.466.2-1.275.371-2.417.514a131 131 0 0 1-2.864.333v2.865h27.054q5.823.002 10.134-.695c2.874-.466 5.405-1.256 7.604-2.38 2.074-1.046 3.673-2.483 4.786-4.31 1.113-1.817 1.665-4.054 1.665-6.69 0-2.198-.485-4.11-1.465-5.738z"/></svg>