<svg width="224" height="120" viewBox="0 0 224 120" fill="none" xmlns="http://www.w3.org/2000/svg">
<g clip-path="url(#clip0_1_4340)">
<path d="M15.9746 58.2734H18.5081V63.3903L23.6542 58.2734H26.6869L20.6381 64.0588L26.6869 70.0334H23.6542L18.5081 64.8871V70.0334H15.9746V58.2734Z" fill="#020403"/>
<path d="M39.8496 58.2734H44.3717C45.6613 58.3155 48.7273 58.635 48.7273 61.3679C48.7238 61.849 48.5797 62.3183 48.3133 62.717C48.0469 63.1157 47.6699 63.426 47.2297 63.6089C48.7065 64.0294 49.5593 65.1352 49.5593 66.4554C49.5593 68.1078 48.5484 69.9241 44.4673 70.025H39.8496V58.2734ZM44.4008 62.8017C46.0648 62.8017 46.1938 61.8977 46.1938 61.595C46.1938 60.4514 44.9458 60.3883 44.4008 60.3883H42.3831V62.8017H44.4008ZM44.8626 67.9186C45.1579 67.9186 47.0258 67.9186 47.0258 66.4428C47.0258 65.9971 46.8386 64.9165 44.8626 64.9165H42.3665V67.9186H44.8626Z" fill="#020403"/>
<path d="M68.2406 58.2734H70.2749L75.9743 70.046H73.1787L71.7726 67.0104H66.7347L65.3286 70.0334H62.5371L68.2406 58.2734ZM70.8116 64.8871L69.2599 61.452L67.704 64.8871H70.8116Z" fill="#020403"/>
<path d="M92.043 58.2734H95.8744C100.255 58.2734 100.775 60.834 100.775 61.944C100.775 63.4239 99.8515 65.5851 95.8744 65.5851H94.5765V70.0334H92.043V58.2734ZM94.5765 63.4702H96.0866C96.7522 63.4702 98.254 63.3735 98.254 61.9271C98.254 60.4808 96.7522 60.3883 96.0866 60.3883H94.589L94.5765 63.4702Z" fill="#020403"/>
<path d="M116.854 60.3884H113.492V58.2861H122.753V60.3884H119.404V70.0335H116.866L116.854 60.3884Z" fill="#020403"/>
<path d="M141.756 58.2734H143.79L149.489 70.046H146.694L145.288 67.0104H140.258L138.852 70.046H136.061L141.756 58.2734ZM144.327 64.8871L142.775 61.452L141.219 64.8871H144.327Z" fill="#020403"/>
<path d="M177.524 70.0385H174.729L170.985 61.2932L167.241 70.0343H164.449L169.857 58.2617H172.075L177.524 70.0385Z" fill="#020403"/>
<path d="M195.347 58.2743V62.8026H197.381C200.767 62.8026 201.911 64.6652 201.911 66.4269C201.911 68.5712 200.043 70.0343 197.381 70.0343H192.805V58.2617L195.347 58.2743ZM195.347 67.9195H197.397C198.562 67.9195 199.378 67.3645 199.378 66.4269C199.378 65.4893 198.546 64.9174 197.397 64.9174H195.347V67.9195ZM203.301 58.2743H205.834V70.0469H203.301V58.2743Z" fill="#020403"/>
<path d="M133.057 76.832L125.273 94.512H139.418L147.201 76.832H133.057Z" fill="#020403"/>
<path d="M168.864 23.1553H168.748H156.704H123.719V36.4499H150.851L144.207 51.5357H158.352L168.864 27.6625V23.1553Z" fill="#020403"/>
<path d="M188.194 76.832L180.41 94.512H194.555L202.342 76.832H188.194Z" fill="#020403"/>
<path d="M224.001 23.1553H223.88H211.837H178.855V36.4499H205.984L199.344 51.5357H213.488L224.001 27.6625V23.1553Z" fill="#020403"/>
<path d="M15.2968 40.4568V51.5357H28.4511V23.1553H24.0663L0 31.9132L3.11593 44.7832L15.2968 40.4568Z" fill="#020403"/>
<path d="M28.4551 76.832H15.3008V94.5162H28.4551V76.832Z" fill="#020403"/>
<path d="M59.694 76.832L51.9062 94.512H66.0548L73.8384 76.832H59.694Z" fill="#020403"/>
<path d="M95.4953 23.1553H95.3788H83.3352H50.3496V36.4499H77.4819L70.8382 51.5357H84.9826L95.4953 27.6625V23.1553Z" fill="#020403"/>
<path d="M102.457 46.2219L115.008 17.1436H113.922L101.367 46.2219H102.457Z" fill="#020403"/>
<path d="M85.8791 82.0938L76.498 103.818H77.588L86.9691 82.0938H85.8791Z" fill="#020403"/>
</g>
<defs>
<clipPath id="clip0_1_4340">
<rect width="224" height="120" fill="white"/>
</clipPath>
</defs>
</svg>
