<svg width="487" height="120" viewBox="0 0 487 120" fill="none" xmlns="http://www.w3.org/2000/svg">
<g clip-path="url(#clip0_1_4325)">
<path d="M168.315 43.8457H171.766L187.038 78.0595H182.031L170.012 50.48H169.916L158.65 78.0595H153.643L168.315 43.8457Z" fill="#020403"/>
<path d="M210.153 44.0176V48.3578H195.685V58.7287H209.649V63.069H195.685V73.6369H210.6V78.028H190.779V44.0176H210.153Z" fill="#020403"/>
<path d="M226.706 44.0176C233.615 44.0176 237.27 47.7542 237.27 52.8443C237.27 56.2313 235.42 58.6271 232.065 60.0251C237.124 60.972 240.224 64.5115 240.224 68.7501C240.224 75.5306 233.845 78.028 227.759 78.028H216.844V44.0176H226.706ZM221.705 58.6779H225.182C230.336 58.6779 232.243 56.0343 232.243 53.2446C232.243 49.8004 230.387 48.307 225.934 48.307H221.73L221.705 58.6779ZM226.859 73.7132C232.518 73.7132 235.152 72.0165 235.152 68.2799C235.152 64.9881 232.849 62.8402 226.636 62.8402H221.686V73.7132H226.859Z" fill="#020403"/>
<path d="M280.179 61.0023C280.179 70.0769 273.372 78.5032 261.506 78.5032C250.694 78.5032 243.479 70.4772 243.479 61.1485C243.479 52.2519 249.89 43.5968 261.755 43.5968C272.619 43.565 280.179 51.2987 280.179 61.0023ZM248.537 61.1485C248.537 68.6788 254.598 73.9151 261.602 73.9151C268.862 73.9151 275.12 69.632 275.12 60.9515C275.115 59.2425 274.766 57.5518 274.095 55.979C273.424 54.4063 272.443 52.9831 271.212 51.7935C269.98 50.6038 268.522 49.6717 266.923 49.0519C265.324 48.4322 263.617 48.1374 261.902 48.1849C253.443 48.1531 248.537 53.8914 248.537 61.1167V61.1485Z" fill="#020403"/>
<path d="M286.207 44.0176H307.986V48.4023H291.113V57.6294H297.97C305.281 57.6294 310.289 61.5185 310.289 67.8541C310.289 74.0373 305.428 78.0217 297.97 78.0217H286.207V44.0176ZM298.774 73.6369C302.379 73.6369 305.23 71.1459 305.23 67.8541C305.23 64.0413 302.576 62.0205 297.671 62.0205H291.113V73.6369H298.774Z" fill="#020403"/>
<path d="M334.952 44.0176V48.3578H320.484V58.7287H334.448V63.069H320.484V73.6369H335.399V78.028H315.578V44.0176H334.952Z" fill="#020403"/>
<path d="M352.087 44.0176C359.047 44.0176 363.2 47.6588 363.2 53.6386C363.2 60.3238 358.645 63.266 351.283 63.266H346.581V78.028H341.676V44.0176H352.087ZM346.581 58.9766H351.085C356.795 58.9766 358.141 56.7842 358.141 53.5433C358.141 50.3024 356.54 48.2943 351.085 48.2943H346.581V58.9766Z" fill="#020403"/>
<path d="M387.745 44.0176V48.3578H373.277V58.7287H387.241V63.069H373.277V73.6369H388.192V78.028H368.371V44.0176H387.745Z" fill="#020403"/>
<path d="M396.811 70.7975C401.219 63.7628 402.871 61.2654 406.125 59.9945C403.728 58.697 401.892 56.5696 400.964 54.0147L400.211 52.0193C399.21 49.3757 398.106 48.378 394.253 48.378V43.9933H395.101C400.058 43.9933 402.31 45.5883 403.866 49.4266L404.868 51.924C406.38 55.686 408.019 57.8275 411.126 57.8275H411.273V44.0187H416.179V57.8275H416.332C419.381 57.8275 420.886 55.883 422.59 51.8922L423.636 49.3948C425.193 45.7535 427.846 44.0123 432.35 44.0123H433.173V48.3971C429.62 48.3971 428.471 49.4456 427.317 52.0384L426.494 54.0147C425.39 56.5121 423.304 59.0984 421.333 60.0008C425.492 61.4497 426.692 64.3919 429.626 69.177L435.131 78.0736H429.479L424.88 70.251C421.052 63.7183 419.221 61.8183 416.319 61.8183H416.166V78.0291H411.26V61.8183H411.113C408.007 61.8183 406.354 63.9153 402.597 70.2001L397.959 78.0291H392.301L396.811 70.7975Z" fill="#020403"/>
<path d="M439.906 44.0176H444.812V58.3284H450.394C457.705 58.3284 462.062 62.4208 462.062 68.2545C462.062 73.9356 457.596 78.028 450.394 78.028H439.932L439.906 44.0176ZM451.325 73.6369C454.776 73.6369 456.977 71.6415 456.977 68.4515C456.977 64.9627 454.725 62.7322 451.172 62.7322H444.793V73.6369H451.325Z" fill="#020403"/>
<path d="M486.573 44.0176V48.3578H472.086V58.7287H486.05V63.069H472.086V73.6369H487.001V78.028H467.199V44.0176H486.573Z" fill="#020403"/>
<path d="M62.6113 95.9088C55.173 95.899 47.9281 93.5474 41.912 89.1899C35.8958 84.8324 31.4163 78.6922 29.1135 71.6465C27.5953 72.1803 26.0642 72.6506 24.5332 73.0255C27.36 81.8011 33.1538 89.3289 40.9276 94.3263C48.7013 99.3237 57.974 101.482 67.1658 100.432C76.3576 99.3831 84.8999 95.1916 91.3372 88.5719C97.7745 81.9523 101.709 73.314 102.469 64.1289C100.843 64.3005 99.2222 64.5483 97.5955 64.8661C96.5897 73.4092 92.4728 81.2881 86.0249 87.0095C79.5771 92.7309 71.2463 95.8974 62.6113 95.9088Z" fill="#020403"/>
<path d="M124.7 65.2235C119.227 58.926 110.889 57.331 102.462 57.5153C101.598 47.2755 96.7971 37.764 89.0605 30.9672C81.324 24.1703 71.2504 20.6137 60.9438 21.0402C50.6371 21.4667 40.8944 25.8433 33.7504 33.2559C26.6063 40.6685 22.6134 50.544 22.6056 60.8197C22.6056 62.1161 22.6673 63.3976 22.7906 64.6643C20.7491 65.1026 18.6654 65.3158 16.5771 65.2998C10.9251 65.2934 5.36231 64.6452 1.91748 59.8601C1.7844 59.6299 1.56761 59.4595 1.31194 59.384C1.05627 59.3085 0.781244 59.3337 0.543716 59.4545C0.306188 59.5752 0.124312 59.7823 0.0356778 60.0328C-0.052956 60.2833 -0.0415718 60.5582 0.0674777 60.8006C1.44479 63.9182 3.88867 66.4472 6.96351 67.937C22.4397 74.9272 37.5842 62.8532 51.4784 57.8076C55.5356 56.2888 59.3759 55.2085 63.4459 55.2657C61.5631 56.2808 60.1261 57.9568 59.4142 59.9682C58.0937 64.0924 61.647 67.1935 65.3406 67.7336C67.988 68.2865 71.0182 67.7845 73.487 67.2952C78.2778 66.2975 82.9603 64.9312 87.6491 63.7429C98.9596 61.004 114.053 57.3246 123.124 66.5898C123.312 66.774 123.562 66.8806 123.825 66.888C124.089 66.8954 124.345 66.8031 124.542 66.6297C124.74 66.4564 124.864 66.2148 124.89 65.9538C124.915 65.6929 124.841 65.4319 124.681 65.2235H124.7ZM27.3901 60.8197C27.3776 51.7707 30.8761 43.067 37.1545 36.5272C43.4329 29.9874 52.0055 26.1176 61.081 25.7262C70.1566 25.3349 79.0328 28.4524 85.855 34.4273C92.6772 40.4023 96.9176 48.7723 97.6901 57.7885C93.8625 58.1317 90.0732 58.7417 86.6794 59.32C83.4897 59.911 80.3001 60.5909 77.1487 61.3027C73.0659 62.0208 64.7856 64.4419 63.4268 61.8365C61.0027 57.1975 73.2765 53.7533 73.2765 53.7533C69.6954 52.8523 66.0167 52.3934 62.3232 52.387C55.3059 52.387 47.9953 54.9861 41.6287 57.6805C37.0547 59.5551 32.3085 61.811 27.4921 63.3997C27.4347 62.5355 27.3901 61.6839 27.3901 60.8197Z" fill="#020403"/>
</g>
<defs>
<clipPath id="clip0_1_4325">
<rect width="487" height="120" fill="white"/>
</clipPath>
</defs>
</svg>
